####
#
# OBJ File Generated by Meshlab
#
####
# Object male-connector-minimal_collision_4.obj
#
# Vertices: 71
# Faces: 138
#
####
vn 0.1123468 0.6743237 0.7298395
v 0.0057818 -0.0003806 0.0087098
vn 0.5222505 0.6246575 0.5805666
v 0.0059369 -0.0003806 0.0086609
vn -0.1044730 0.6764492 0.7290418
v 0.0026461 -0.0003806 0.0087098
vn 0.1296646 -0.1359900 0.9821883
v 0.0057818 -0.0088017 0.0087077
vn 0.6686386 -0.0918347 0.7378949
v 0.0059369 -0.0088017 0.0086598
vn 0.6499585 0.7062863 0.2805596
v 0.0059989 -0.0003806 0.0085187
vn 0.9753524 -0.0038920 0.2206186
v 0.0060010 -0.0086058 0.0085138
vn -0.4900509 0.6294024 0.6030778
v 0.0024789 -0.0003806 0.0086609
vn -0.6362550 -0.1010712 0.7648295
v 0.0024793 -0.0088017 0.0086598
vn -0.1208591 -0.1372292 0.9831384
v 0.0026461 -0.0088017 0.0087077
vn 0.0824621 -0.6901894 0.7189149
v 0.0057818 -0.0089504 0.0086598
vn 0.5505349 -0.5784144 0.6019536
v 0.0059178 -0.0089335 0.0086439
vn 0.9674894 -0.1706194 0.1866906
v 0.0059989 -0.0088017 0.0085138
vn 0.7257673 0.6683570 0.1629748
v 0.0060010 -0.0003806 0.0085138
vn 0.9998325 -0.0088399 0.0160270
v 0.0060077 -0.0086058 0.0083177
vn 0.7112134 0.7028471 0.0134713
v 0.0060084 -0.0003806 0.0083177
vn -0.7222409 0.6614712 0.2020497
v 0.0024003 -0.0003806 0.0085138
vn -0.9650401 -0.0065834 0.2620195
v 0.0024013 -0.0086058 0.0085138
vn -0.9543526 -0.2038275 0.2183246
v 0.0024049 -0.0088017 0.0085138
vn -0.5205356 -0.5922389 0.6150576
v 0.0025023 -0.0089335 0.0086439
vn -0.0781743 -0.6903924 0.7191989
v 0.0026461 -0.0089504 0.0086598
vn 0.1390568 -0.9767308 0.1632798
v 0.0057818 -0.0090044 0.0085138
vn 0.6820627 -0.7229630 0.1100684
v 0.0059383 -0.0089521 0.0085138
vn 0.9785113 -0.2059273 0.0104759
v 0.0060038 -0.0088017 0.0083177
vn 0.9869695 -0.0086980 -0.1606721
v 0.0060077 -0.0086058 0.0053780
vn 0.7304536 0.6723219 -0.1200868
v 0.0060084 -0.0003806 0.0053780
vn -0.7066668 0.7065675 0.0372087
v 0.0023999 -0.0003806 0.0085074
vn -0.9996784 -0.0145795 0.0207533
v 0.0023925 -0.0086058 0.0083177
vn -0.7125343 0.7014080 0.0179357
v 0.0023904 -0.0003806 0.0083177
vn -0.9687482 -0.2477310 0.0125050
v 0.0023989 -0.0088017 0.0083177
vn -0.6497195 -0.7508937 0.1184197
v 0.0024782 -0.0089521 0.0085138
vn -0.1299740 -0.9777689 0.1645440
v 0.0026461 -0.0090044 0.0085138
vn 0.1632013 -0.9865628 0.0076838
v 0.0057818 -0.0090078 0.0083177
vn 0.6820697 -0.7312658 0.0055970
v 0.0059397 -0.0089538 0.0083177
vn 0.9729204 -0.1869986 -0.1358586
v 0.0060038 -0.0088017 0.0053780
vn 0.7640359 -0.1357652 -0.6307274
v 0.0059418 -0.0088017 0.0051887
vn 0.7745430 -0.0046880 -0.6325039
v 0.0059436 -0.0086058 0.0051880
vn 0.5943631 0.6355008 -0.4928197
v 0.0059440 -0.0003806 0.0051873
vn -0.9815950 -0.0144530 -0.1904269
v 0.0023925 -0.0086058 0.0053780
vn -0.7074038 0.7068093 -0.0006614
v 0.0023904 -0.0003806 0.0055677
vn -0.9611473 -0.2249291 -0.1600087
v 0.0023989 -0.0088017 0.0053780
vn -0.6465484 -0.7628523 0.0056223
v 0.0024768 -0.0089538 0.0083177
vn -0.1530095 -0.9881947 0.0077042
v 0.0026461 -0.0090078 0.0083177
vn 0.1470814 -0.9816560 -0.1213206
v 0.0057818 -0.0090078 0.0053780
vn 0.6807767 -0.7277916 -0.0828403
v 0.0059397 -0.0089538 0.0053780
vn 0.5978985 -0.6307560 -0.4946356
v 0.0059199 -0.0089352 0.0052196
vn 0.2264435 -0.2409682 -0.9437467
v 0.0057818 -0.0088017 0.0050962
vn 0.2639435 -0.0051461 -0.9645244
v 0.0057818 -0.0086058 0.0050941
vn 0.3776547 0.0025458 -0.9259431
v 0.0057818 -0.0005706 0.0050941
vn 0.1874550 0.6597567 -0.7277237
v 0.0057679 -0.0003806 0.0050905
vn -0.7434668 -0.0077838 -0.6687276
v 0.0024704 -0.0086058 0.0051870
vn -0.7343982 -0.1537824 -0.6610676
v 0.0024736 -0.0088017 0.0051880
vn -0.7312826 0.6680392 -0.1376567
v 0.0023907 -0.0003806 0.0053780
vn -0.6587784 0.7049358 -0.2628242
v 0.0023932 -0.0003806 0.0053717
vn -0.5668089 -0.6485938 -0.5079899
v 0.0025005 -0.0089352 0.0052196
vn -0.6471180 -0.7570465 -0.0901049
v 0.0024768 -0.0089538 0.0053780
vn -0.1377924 -0.9828641 -0.1224397
v 0.0026461 -0.0090078 0.0053780
vn 0.1162242 -0.7851310 -0.6083267
v 0.0057818 -0.0089538 0.0051891
vn 0.0019658 -0.2795576 -0.9601269
v 0.0055859 -0.0088017 0.0050951
vn 0.0040850 -0.0070460 -0.9999669
v 0.0055859 -0.0086058 0.0050923
vn 0.0048036 0.7054124 -0.7087809
v 0.0055859 -0.0003806 0.0050880
vn -0.2446665 -0.0063072 -0.9695868
v 0.0026461 -0.0086058 0.0050930
vn -0.2108875 -0.2455758 -0.9461601
v 0.0026461 -0.0088017 0.0050955
vn -0.5706731 0.6378766 -0.5171516
v 0.0024693 -0.0003806 0.0051859
vn -0.1101667 -0.7866930 -0.6074352
v 0.0026461 -0.0089538 0.0051891
vn -0.0006472 -0.2800223 -0.9599933
v 0.0028423 -0.0088017 0.0050951
vn -0.0015799 -0.0072761 -0.9999723
v 0.0028423 -0.0086058 0.0050923
vn -0.0020225 0.7062867 -0.7079231
v 0.0028423 -0.0003806 0.0050880
vn -0.3288034 0.7064769 -0.6267206
v 0.0024754 -0.0003806 0.0051827
vn -0.3925187 0.0013414 -0.9197431
v 0.0026461 -0.0005706 0.0050930
vn -0.1761278 0.6601089 -0.7302296
v 0.0026577 -0.0003806 0.0050891
# 71 vertices, 0 vertices normals

f 1//1 2//2 6//6
f 1//1 6//6 14//14
f 1//1 14//14 16//16
f 1//1 16//16 26//26
f 1//1 26//26 38//38
f 1//1 38//38 50//50
f 1//1 50//50 61//61
f 1//1 61//61 68//68
f 1//1 68//68 71//71
f 1//1 71//71 69//69
f 1//1 69//69 64//64
f 1//1 64//64 54//54
f 1//1 54//54 53//53
f 1//1 53//53 40//40
f 1//1 40//40 29//29
f 1//1 29//29 27//27
f 1//1 27//27 17//17
f 1//1 17//17 8//8
f 1//1 8//8 3//3
f 1//1 3//3 10//10
f 1//1 10//10 4//4
f 1//1 4//4 5//5
f 1//1 5//5 2//2
f 2//2 5//5 7//7
f 2//2 7//7 6//6
f 3//3 8//8 9//9
f 3//3 9//9 10//10
f 4//4 10//10 21//21
f 4//4 21//21 11//11
f 4//4 11//11 12//12
f 4//4 12//12 5//5
f 5//5 12//12 13//13
f 5//5 13//13 7//7
f 6//6 7//7 14//14
f 7//7 13//13 15//15
f 7//7 15//15 16//16
f 7//7 16//16 14//14
f 8//8 17//17 9//9
f 9//9 18//18 19//19
f 9//9 19//19 20//20
f 9//9 20//20 10//10
f 9//9 17//17 18//18
f 10//10 20//20 21//21
f 11//11 21//21 32//32
f 11//11 32//32 22//22
f 11//11 22//22 12//12
f 12//12 22//22 23//23
f 12//12 23//23 13//13
f 13//13 23//23 24//24
f 13//13 24//24 15//15
f 15//15 24//24 35//35
f 15//15 35//35 25//25
f 15//15 25//25 26//26
f 15//15 26//26 16//16
f 17//17 27//27 18//18
f 18//18 28//28 19//19
f 18//18 27//27 29//29
f 18//18 29//29 28//28
f 19//19 30//30 31//31
f 19//19 31//31 20//20
f 19//19 28//28 30//30
f 20//20 31//31 32//32
f 20//20 32//32 21//21
f 22//22 32//32 43//43
f 22//22 43//43 33//33
f 22//22 33//33 23//23
f 23//23 33//33 34//34
f 23//23 34//34 24//24
f 24//24 34//34 45//45
f 24//24 45//45 35//35
f 25//25 35//35 36//36
f 25//25 36//36 37//37
f 25//25 37//37 26//26
f 26//26 37//37 38//38
f 28//28 39//39 41//41
f 28//28 41//41 30//30
f 28//28 29//29 40//40
f 28//28 40//40 39//39
f 30//30 41//41 56//56
f 30//30 56//56 42//42
f 30//30 42//42 31//31
f 31//31 42//42 43//43
f 31//31 43//43 32//32
f 33//33 43//43 57//57
f 33//33 57//57 44//44
f 33//33 44//44 45//45
f 33//33 45//45 34//34
f 35//35 45//45 46//46
f 35//35 46//46 36//36
f 36//36 46//46 47//47
f 36//36 47//47 48//48
f 36//36 48//48 37//37
f 37//37 48//48 38//38
f 38//38 49//49 50//50
f 38//38 48//48 49//49
f 39//39 51//51 52//52
f 39//39 52//52 41//41
f 39//39 40//40 53//53
f 39//39 53//53 54//54
f 39//39 54//54 51//51
f 41//41 52//52 55//55
f 41//41 55//55 56//56
f 42//42 56//56 57//57
f 42//42 57//57 43//43
f 44//44 58//58 46//46
f 44//44 46//46 45//45
f 44//44 57//57 65//65
f 44//44 65//65 58//58
f 46//46 58//58 47//47
f 47//47 58//58 59//59
f 47//47 59//59 60//60
f 47//47 60//60 48//48
f 48//48 60//60 61//61
f 48//48 61//61 50//50
f 48//48 50//50 49//49
f 51//51 62//62 63//63
f 51//51 63//63 52//52
f 51//51 54//54 64//64
f 51//51 64//64 62//62
f 52//52 63//63 55//55
f 55//55 63//63 65//65
f 55//55 65//65 57//57
f 55//55 57//57 56//56
f 58//58 65//65 66//66
f 58//58 66//66 59//59
f 59//59 66//66 67//67
f 59//59 67//67 60//60
f 60//60 67//67 68//68
f 60//60 68//68 61//61
f 62//62 67//67 63//63
f 62//62 64//64 69//69
f 62//62 69//69 70//70
f 62//62 70//70 71//71
f 62//62 71//71 68//68
f 62//62 68//68 67//67
f 63//63 67//67 66//66
f 63//63 66//66 65//65
f 69//69 71//71 70//70
# 138 faces, 0 coords texture

# End of File
