####
#
# OBJ File Generated by Meshlab
#
####
# Object male-connector-minimal_collision_5.obj
#
# Vertices: 121
# Faces: 238
#
####
vn 0.0006224 0.7067354 0.7074777
v 0.0012738 -0.0003806 0.0045124
vn 0.0184080 0.7015769 0.7123560
v 0.0014699 -0.0003806 0.0045120
vn -0.0006274 0.7067147 0.7074984
v -0.0012806 -0.0003806 0.0045124
vn 0.0159676 -0.0254299 0.9995491
v 0.0014699 -0.0088017 0.0045077
vn 0.0409779 0.7052535 0.7077700
v 0.0016259 -0.0003806 0.0045042
vn 0.1255268 -0.0230212 0.9918231
v 0.0016276 -0.0088017 0.0045017
vn -0.0192121 0.7013345 0.7125733
v -0.0014752 -0.0003806 0.0045120
vn -0.0159638 -0.0254359 0.9995490
v -0.0014699 -0.0088017 0.0045077
vn 0.0131373 -0.5442654 0.8388103
v 0.0014699 -0.0089090 0.0045017
vn 0.1913026 -0.5451273 0.8162350
v 0.0016074 -0.0089056 0.0044996
vn 0.1046334 0.6896111 0.7165811
v 0.0016312 -0.0003806 0.0045038
vn 0.5768770 -0.1586659 0.8012727
v 0.0017255 -0.0088017 0.0044815
vn -0.0980172 0.6887514 0.7183413
v -0.0016312 -0.0003806 0.0045038
vn -0.1255326 -0.0230279 0.9918222
v -0.0016276 -0.0088017 0.0045017
vn -0.1913025 -0.5451273 0.8162351
v -0.0016074 -0.0089056 0.0044996
vn -0.0131373 -0.5442654 0.8388103
v -0.0014699 -0.0089090 0.0045017
vn 0.0426786 -0.9416694 0.3338222
v 0.0014699 -0.0089630 0.0043978
vn 0.2583159 -0.8846974 0.3880509
v 0.0016702 -0.0089369 0.0044116
vn 0.7363219 -0.5954964 0.3212695
v 0.0017783 -0.0089200 0.0043556
vn 0.4578473 0.6282387 0.6290405
v 0.0017290 -0.0003806 0.0044815
vn 0.9377077 -0.0698152 0.3403382
v 0.0017858 -0.0088017 0.0043833
vn -0.1557174 0.7064322 0.6904387
v -0.0016344 -0.0003806 0.0045031
vn -0.5768713 -0.1586633 0.8012774
v -0.0017255 -0.0088017 0.0044815
vn -0.7363219 -0.5954964 0.3212695
v -0.0017783 -0.0089200 0.0043556
vn -0.2583159 -0.8846974 0.3880509
v -0.0016702 -0.0089369 0.0044116
vn -0.0426786 -0.9416695 0.3338222
v -0.0014699 -0.0089630 0.0043978
vn 0.0603313 -0.9920835 0.1101389
v 0.0014699 -0.0090078 0.0042017
vn 0.2496485 -0.9644211 0.0869922
v 0.0016659 -0.0089833 0.0042017
vn 0.7866493 -0.6161778 0.0388306
v 0.0017858 -0.0089301 0.0042017
vn 0.9957516 -0.0765106 0.0512337
v 0.0018077 -0.0088017 0.0042017
vn 0.6275638 0.6988908 0.3430969
v 0.0017854 -0.0003806 0.0043868
vn 0.7197336 0.6926698 0.0468210
v 0.0018109 -0.0003806 0.0042017
vn 0.7085793 0.6715187 0.2167442
v 0.0017872 -0.0003806 0.0043833
vn -0.4574214 0.6283612 0.6292281
v -0.0017290 -0.0003806 0.0044815
vn -0.9377078 -0.0698153 0.3403379
v -0.0017858 -0.0088017 0.0043833
vn -0.7866492 -0.6161779 0.0388306
v -0.0017858 -0.0089301 0.0042017
vn -0.2496485 -0.9644211 0.0869922
v -0.0016659 -0.0089833 0.0042017
vn -0.9957516 -0.0765106 0.0512337
v -0.0018077 -0.0088017 0.0042017
vn -0.0603313 -0.9920835 0.1101389
v -0.0014699 -0.0090078 0.0042017
vn 0.0825680 -0.9959101 -0.0366823
v 0.0014699 -0.0090078 0.0020462
vn 0.2704979 -0.9626767 -0.0091959
v 0.0016659 -0.0089833 0.0022424
vn 0.7892464 -0.6138825 -0.0154407
v 0.0017858 -0.0089301 0.0022424
vn 0.9964123 -0.0824764 -0.0189771
v 0.0018077 -0.0088017 0.0022424
vn 0.7120615 0.7019333 -0.0160674
v 0.0018109 -0.0003806 0.0022424
vn -0.6082686 0.7065905 0.3615786
v -0.0017312 -0.0003806 0.0044779
vn -0.7064130 0.6645336 0.2436713
v -0.0017872 -0.0003806 0.0043833
vn -0.7197336 0.6926698 0.0468210
v -0.0018109 -0.0003806 0.0042017
vn -0.7892464 -0.6138825 -0.0154407
v -0.0017858 -0.0089301 0.0022424
vn -0.2704979 -0.9626767 -0.0091959
v -0.0016659 -0.0089833 0.0022424
vn -0.9964123 -0.0824764 -0.0189771
v -0.0018077 -0.0088017 0.0022424
vn -0.0825680 -0.9959101 -0.0366823
v -0.0014699 -0.0090078 0.0020462
vn 0.0449489 -0.9979768 -0.0449663
v 0.0010778 -0.0090078 0.0016540
vn 0.1960861 -0.9636077 -0.1816881
v 0.0014699 -0.0089901 0.0018501
vn 0.2916941 -0.9513109 -0.0996106
v 0.0016659 -0.0089782 0.0020462
vn 0.7964340 -0.5990530 -0.0826342
v 0.0017815 -0.0089242 0.0020462
vn 0.9928601 -0.0599553 -0.1031228
v 0.0017992 -0.0088017 0.0020462
vn 0.7184139 0.6899310 -0.0887508
v 0.0018021 -0.0003806 0.0020462
vn -0.7120615 0.7019333 -0.0160674
v -0.0018109 -0.0003806 0.0022424
vn -0.7964340 -0.5990530 -0.0826342
v -0.0017815 -0.0089242 0.0020462
vn -0.2916941 -0.9513109 -0.0996106
v -0.0016659 -0.0089782 0.0020462
vn -0.9928601 -0.0599553 -0.1031228
v -0.0017992 -0.0088017 0.0020462
vn -0.0449489 -0.9979768 -0.0449663
v -0.0010778 -0.0090078 0.0016540
vn -0.1960861 -0.9636077 -0.1816881
v -0.0014699 -0.0089901 0.0018501
vn 0.0411128 -0.9973921 -0.0593205
v 0.0006857 -0.0090078 0.0012621
vn 0.1890144 -0.9636177 -0.1889829
v 0.0012738 -0.0089901 0.0016540
vn 0.3560827 -0.8772386 -0.3219589
v 0.0016535 -0.0089369 0.0018625
vn 0.7693745 -0.5133117 -0.3802288
v 0.0017730 -0.0089124 0.0019363
vn 0.8884131 -0.0295372 -0.4580938
v 0.0017773 -0.0088017 0.0019303
vn 0.6738635 0.6497799 -0.3517018
v 0.0017783 -0.0003806 0.0019296
vn -0.7184139 0.6899310 -0.0887508
v -0.0018021 -0.0003806 0.0020462
vn -0.7693745 -0.5133117 -0.3802288
v -0.0017730 -0.0089124 0.0019363
vn -0.3560827 -0.8772386 -0.3219589
v -0.0016535 -0.0089369 0.0018625
vn -0.8884116 -0.0295406 -0.4580962
v -0.0017773 -0.0088017 0.0019303
vn -0.0411128 -0.9973921 -0.0593205
v -0.0006857 -0.0090078 0.0012621
vn -0.1890144 -0.9636177 -0.1889829
v -0.0012738 -0.0089901 0.0016540
vn 0.0217375 -0.9758054 -0.2175577
v 0.0004900 -0.0089977 0.0010660
vn 0.1376178 -0.9536967 -0.2674399
v 0.0006857 -0.0089858 0.0010660
vn 0.1860505 -0.9637440 -0.1912659
v 0.0008817 -0.0089901 0.0012621
vn 0.3355073 -0.8722014 -0.3559488
v 0.0008697 -0.0089369 0.0010784
vn 0.6159871 -0.4939292 -0.6136725
v 0.0015801 -0.0089124 0.0017402
vn 0.7152470 -0.0403834 -0.6977041
v 0.0016840 -0.0088017 0.0018320
vn 0.5082923 0.7045826 -0.4951791
v 0.0016847 -0.0003806 0.0018313
vn -0.6768716 0.6524621 -0.3407905
v -0.0017783 -0.0003806 0.0019296
vn -0.6159871 -0.4939292 -0.6136725
v -0.0015801 -0.0089124 0.0017402
vn -0.7152452 -0.0403871 -0.6977057
v -0.0016840 -0.0088017 0.0018320
vn -0.3355074 -0.8722014 -0.3559488
v -0.0008697 -0.0089369 0.0010784
vn -0.5212532 0.7036653 -0.4828565
v -0.0017751 -0.0003806 0.0019260
vn -0.1860505 -0.9637440 -0.1912659
v -0.0008817 -0.0089901 0.0012621
vn -0.1376178 -0.9536967 -0.2674399
v -0.0006857 -0.0089858 0.0010660
vn -0.0217375 -0.9758054 -0.2175577
v -0.0004900 -0.0089977 0.0010660
vn 0.0383159 -0.6638800 -0.7468569
v 0.0004900 -0.0089445 0.0009302
vn 0.1575965 -0.6302941 -0.7601926
v 0.0006857 -0.0089318 0.0009416
vn 0.4315464 -0.5111837 -0.7432758
v 0.0007959 -0.0089124 0.0009579
vn 0.6144970 -0.4933607 -0.6156205
v 0.0009920 -0.0089124 0.0011518
vn 0.7072583 -0.0396230 -0.7058440
v 0.0015862 -0.0088017 0.0017338
vn 0.5007146 0.7068552 -0.4996404
v 0.0015901 -0.0003806 0.0017363
vn -0.6144970 -0.4933607 -0.6156205
v -0.0009920 -0.0089124 0.0011518
vn -0.7072580 -0.0396222 -0.7058443
v -0.0015862 -0.0088017 0.0017338
vn -0.5079414 0.7047001 -0.4953719
v -0.0016847 -0.0003806 0.0018313
vn -0.4315464 -0.5111837 -0.7432758
v -0.0007959 -0.0089124 0.0009579
vn -0.1575965 -0.6302941 -0.7601926
v -0.0006857 -0.0089318 0.0009416
vn -0.0383159 -0.6638801 -0.7468569
v -0.0004900 -0.0089445 0.0009302
vn 0.0504312 -0.1239380 -0.9910076
v 0.0004900 -0.0088017 0.0008923
vn 0.1955018 -0.0842032 -0.9770818
v 0.0006857 -0.0088017 0.0009146
vn 0.5178599 -0.0345718 -0.8547666
v 0.0008019 -0.0088017 0.0009525
vn 0.7017521 -0.0399794 -0.7112985
v 0.0009001 -0.0088017 0.0010479
vn 0.4997994 0.7068650 -0.5005422
v 0.0010023 -0.0003806 0.0011483
vn -0.7017526 -0.0399784 -0.7112982
v -0.0009001 -0.0088017 0.0010479
vn -0.5007089 0.7068571 -0.4996434
v -0.0015869 -0.0003806 0.0017331
vn -0.4999463 0.7069622 -0.5002581
v -0.0010937 -0.0003806 0.0012398
vn -0.5178599 -0.0345718 -0.8547666
v -0.0008019 -0.0088017 0.0009525
vn -0.1955018 -0.0842032 -0.9770818
v -0.0006857 -0.0088017 0.0009146
vn -0.0504312 -0.1239380 -0.9910076
v -0.0004900 -0.0088017 0.0008923
vn 0.0421592 0.6940481 -0.7186931
v 0.0004900 -0.0003806 0.0008894
vn 0.1593820 0.6845641 -0.7113153
v 0.0006857 -0.0003806 0.0009125
vn 0.3914283 0.6602162 -0.6410137
v 0.0008030 -0.0003806 0.0009518
vn 0.4973096 0.7058237 -0.5044760
v 0.0009009 -0.0003806 0.0010472
vn -0.4975108 0.7056705 -0.5044919
v -0.0008977 -0.0003806 0.0010440
vn -0.3912531 0.6602613 -0.6410741
v -0.0008030 -0.0003806 0.0009518
vn -0.1593820 0.6845641 -0.7113153
v -0.0006857 -0.0003806 0.0009125
vn -0.0421592 0.6940480 -0.7186933
v -0.0004900 -0.0003806 0.0008894
# 121 vertices, 0 vertices normals

f 1//1 2//2 5//5
f 1//1 5//5 11//11
f 1//1 11//11 20//20
f 1//1 20//20 31//31
f 1//1 31//31 33//33
f 1//1 33//33 32//32
f 1//1 32//32 44//44
f 1//1 44//44 57//57
f 1//1 57//57 69//69
f 1//1 69//69 82//82
f 1//1 82//82 96//96
f 1//1 96//96 107//107
f 1//1 107//107 117//117
f 1//1 117//117 116//116
f 1//1 116//116 115//115
f 1//1 115//115 114//114
f 1//1 114//114 121//121
f 1//1 121//121 120//120
f 1//1 120//120 119//119
f 1//1 119//119 118//118
f 1//1 118//118 110//110
f 1//1 110//110 109//109
f 1//1 109//109 99//99
f 1//1 99//99 87//87
f 1//1 87//87 83//83
f 1//1 83//83 70//70
f 1//1 70//70 58//58
f 1//1 58//58 47//47
f 1//1 47//47 46//46
f 1//1 46//46 45//45
f 1//1 45//45 34//34
f 1//1 34//34 22//22
f 1//1 22//22 13//13
f 1//1 13//13 7//7
f 1//1 7//7 3//3
f 1//1 3//3 8//8
f 1//1 8//8 4//4
f 1//1 4//4 2//2
f 2//2 4//4 6//6
f 2//2 6//6 5//5
f 3//3 7//7 8//8
f 4//4 8//8 16//16
f 4//4 16//16 9//9
f 4//4 9//9 10//10
f 4//4 10//10 6//6
f 5//5 6//6 11//11
f 6//6 10//10 12//12
f 6//6 12//12 11//11
f 7//7 13//13 14//14
f 7//7 14//14 8//8
f 8//8 14//14 15//15
f 8//8 15//15 16//16
f 9//9 16//16 26//26
f 9//9 26//26 17//17
f 9//9 17//17 10//10
f 10//10 17//17 18//18
f 10//10 18//18 19//19
f 10//10 19//19 12//12
f 11//11 12//12 20//20
f 12//12 19//19 21//21
f 12//12 21//21 20//20
f 13//13 22//22 23//23
f 13//13 23//23 14//14
f 14//14 23//23 15//15
f 15//15 23//23 24//24
f 15//15 24//24 25//25
f 15//15 25//25 26//26
f 15//15 26//26 16//16
f 17//17 26//26 39//39
f 17//17 39//39 27//27
f 17//17 27//27 18//18
f 18//18 27//27 28//28
f 18//18 28//28 19//19
f 19//19 28//28 29//29
f 19//19 29//29 30//30
f 19//19 30//30 21//21
f 20//20 21//21 31//31
f 21//21 30//30 32//32
f 21//21 32//32 33//33
f 21//21 33//33 31//31
f 22//22 34//34 23//23
f 23//23 35//35 24//24
f 23//23 34//34 35//35
f 24//24 36//36 37//37
f 24//24 37//37 25//25
f 24//24 35//35 38//38
f 24//24 38//38 36//36
f 25//25 37//37 39//39
f 25//25 39//39 26//26
f 27//27 39//39 51//51
f 27//27 51//51 62//62
f 27//27 62//62 74//74
f 27//27 74//74 64//64
f 27//27 64//64 52//52
f 27//27 52//52 40//40
f 27//27 40//40 41//41
f 27//27 41//41 28//28
f 28//28 41//41 42//42
f 28//28 42//42 29//29
f 29//29 42//42 43//43
f 29//29 43//43 30//30
f 30//30 43//43 44//44
f 30//30 44//44 32//32
f 34//34 45//45 35//35
f 35//35 45//45 46//46
f 35//35 46//46 47//47
f 35//35 47//47 38//38
f 36//36 48//48 49//49
f 36//36 49//49 37//37
f 36//36 38//38 50//50
f 36//36 50//50 48//48
f 37//37 49//49 51//51
f 37//37 51//51 39//39
f 38//38 47//47 58//58
f 38//38 58//58 50//50
f 40//40 52//52 65//65
f 40//40 65//65 53//53
f 40//40 53//53 54//54
f 40//40 54//54 41//41
f 41//41 54//54 42//42
f 42//42 55//55 43//43
f 42//42 54//54 55//55
f 43//43 55//55 56//56
f 43//43 56//56 44//44
f 44//44 56//56 57//57
f 48//48 50//50 59//59
f 48//48 59//59 60//60
f 48//48 60//60 49//49
f 49//49 60//60 51//51
f 50//50 61//61 59//59
f 50//50 58//58 61//61
f 51//51 60//60 63//63
f 51//51 63//63 75//75
f 51//51 75//75 62//62
f 52//52 64//64 78//78
f 52//52 78//78 65//65
f 53//53 65//65 79//79
f 53//53 79//79 66//66
f 53//53 66//66 54//54
f 54//54 66//66 67//67
f 54//54 67//67 55//55
f 55//55 67//67 56//56
f 56//56 67//67 68//68
f 56//56 68//68 57//57
f 57//57 68//68 69//69
f 58//58 70//70 61//61
f 59//59 61//61 71//71
f 59//59 71//71 60//60
f 60//60 71//71 72//72
f 60//60 72//72 63//63
f 61//61 73//73 71//71
f 61//61 70//70 73//73
f 62//62 75//75 88//88
f 62//62 88//88 74//74
f 63//63 72//72 86//86
f 63//63 86//86 75//75
f 64//64 76//76 77//77
f 64//64 77//77 78//78
f 64//64 74//74 90//90
f 64//64 90//90 76//76
f 65//65 78//78 79//79
f 66//66 79//79 94//94
f 66//66 94//94 80//80
f 66//66 80//80 67//67
f 67//67 80//80 81//81
f 67//67 81//81 68//68
f 68//68 81//81 69//69
f 69//69 81//81 82//82
f 70//70 83//83 73//73
f 71//71 84//84 72//72
f 71//71 73//73 85//85
f 71//71 85//85 84//84
f 72//72 84//84 97//97
f 72//72 97//97 86//86
f 73//73 83//83 87//87
f 73//73 87//87 85//85
f 74//74 88//88 89//89
f 74//74 89//89 90//90
f 75//75 86//86 88//88
f 76//76 91//91 77//77
f 76//76 90//90 102//102
f 76//76 102//102 91//91
f 77//77 91//91 92//92
f 77//77 92//92 93//93
f 77//77 93//93 79//79
f 77//77 79//79 78//78
f 79//79 93//93 94//94
f 80//80 94//94 95//95
f 80//80 95//95 81//81
f 81//81 95//95 96//96
f 81//81 96//96 82//82
f 84//84 85//85 98//98
f 84//84 98//98 97//97
f 85//85 87//87 99//99
f 85//85 99//99 109//109
f 85//85 109//109 98//98
f 86//86 97//97 100//100
f 86//86 100//100 89//89
f 86//86 89//89 88//88
f 89//89 100//100 101//101
f 89//89 101//101 102//102
f 89//89 102//102 90//90
f 91//91 103//103 92//92
f 91//91 102//102 113//113
f 91//91 113//113 103//103
f 92//92 103//103 104//104
f 92//92 104//104 93//93
f 93//93 104//104 105//105
f 93//93 105//105 106//106
f 93//93 106//106 94//94
f 94//94 106//106 95//95
f 95//95 106//106 107//107
f 95//95 107//107 96//96
f 97//97 98//98 108//108
f 97//97 108//108 100//100
f 98//98 109//109 110//110
f 98//98 110//110 108//108
f 100//100 108//108 111//111
f 100//100 111//111 112//112
f 100//100 112//112 101//101
f 101//101 112//112 113//113
f 101//101 113//113 102//102
f 103//103 114//114 104//104
f 103//103 113//113 121//121
f 103//103 121//121 114//114
f 104//104 114//114 115//115
f 104//104 115//115 105//105
f 105//105 115//115 116//116
f 105//105 116//116 106//106
f 106//106 116//116 117//117
f 106//106 117//117 107//107
f 108//108 110//110 118//118
f 108//108 118//118 119//119
f 108//108 119//119 111//111
f 111//111 119//119 120//120
f 111//111 120//120 112//112
f 112//112 120//120 121//121
f 112//112 121//121 113//113
# 238 faces, 0 coords texture

# End of File
