mtllib material.mtl
usemtl 0.596078_0.666667_0.686275_0.000000_0.000000
v -0.00690000 0.01070000 -0.00100000
v -0.00690000 0.01070000 -0.00100000
v -0.00690000 0.01070000 -0.00100000
v -0.00690000 0.01070000 0.00960000
v -0.00690000 0.01070000 0.00960000
v -0.00690000 0.01070000 0.00960000
v 0.00690000 0.01070000 0.00960000
v 0.00690000 0.01070000 0.00960000
v 0.00690000 0.01070000 0.00960000
v 0.00690000 0.01070000 -0.00100000
v 0.00690000 0.01070000 -0.00100000
v 0.00690000 0.01070000 -0.00100000
v -0.00690000 0.00970000 -0.00100000
v -0.00690000 0.00970000 -0.00100000
v -0.00690000 0.00970000 -0.00100000
v 0.00690000 0.00970000 -0.00100000
v 0.00690000 0.00970000 -0.00100000
v 0.00690000 0.00970000 -0.00100000
v -0.00210000 0.00000000 0.00960000
v -0.00210000 0.00000000 0.00960000
v 0.00210000 0.00000000 0.00960000
v 0.00210000 0.00000000 0.00960000
v -0.00640000 0.00000000 0.00960000
v -0.00640000 0.00000000 0.00960000
v -0.00690000 0.00000000 0.00960000
v -0.00690000 0.00000000 0.00960000
v -0.00690000 0.00000000 0.00960000
v 0.00690000 0.00000000 0.00960000
v 0.00690000 0.00000000 0.00960000
v 0.00690000 0.00000000 0.00960000
v 0.00690000 0.00970000 -0.00000000
v 0.00690000 0.00970000 -0.00000000
v 0.00690000 0.00970000 -0.00000000
v 0.00690000 0.00000000 0.00480000
v 0.00690000 0.00000000 0.00480000
v 0.00690000 0.00000000 0.00270000
v 0.00690000 0.00000000 0.00270000
v 0.00690000 0.00000000 0.00910000
v 0.00690000 0.00000000 0.00910000
v 0.00690000 0.00000000 -0.00000000
v 0.00690000 0.00000000 -0.00000000
v 0.00690000 0.00000000 -0.00000000
v -0.00690000 0.00000000 0.00480000
v -0.00690000 0.00000000 0.00480000
v -0.00690000 0.00000000 0.00910000
v -0.00690000 0.00000000 0.00910000
v -0.00690000 0.00970000 -0.00000000
v -0.00690000 0.00970000 -0.00000000
v -0.00690000 0.00970000 -0.00000000
v -0.00690000 0.00000000 0.00270000
v -0.00690000 0.00000000 0.00270000
v -0.00690000 0.00000000 0.00000000
v -0.00690000 0.00000000 0.00000000
v -0.00690000 0.00000000 0.00000000
v -0.00210000 0.00000000 -0.00000000
v -0.00210000 0.00000000 -0.00000000
v -0.00640000 0.00000000 -0.00000000
v -0.00640000 0.00000000 -0.00000000
v 0.00210000 0.00000000 -0.00000000
v 0.00210000 0.00000000 -0.00000000
v -0.00350000 -0.00000000 0.00520000
v -0.00350000 -0.00000000 0.00520000
v -0.00350000 -0.00000000 0.00520000
v -0.00490000 0.00000000 0.00520000
v -0.00490000 0.00000000 0.00520000
v -0.00490000 0.00000000 0.00520000
v -0.00250000 0.00000000 0.00620000
v -0.00250000 0.00000000 0.00620000
v -0.00250000 0.00000000 0.00620000
v -0.00250000 0.00000000 0.00860000
v -0.00250000 0.00000000 0.00860000
v -0.00250000 0.00000000 0.00860000
v -0.00590000 0.00000000 0.00860000
v -0.00590000 0.00000000 0.00860000
v -0.00590000 0.00000000 0.00860000
v -0.00590000 0.00000000 0.00620000
v -0.00590000 0.00000000 0.00620000
v -0.00590000 0.00000000 0.00620000
v 0.00170000 0.00000000 0.00860000
v 0.00170000 0.00000000 0.00860000
v 0.00170000 0.00000000 0.00860000
v -0.00170000 0.00000000 0.00860000
v -0.00170000 0.00000000 0.00860000
v -0.00170000 0.00000000 0.00860000
v -0.00170000 0.00000000 0.00520000
v -0.00170000 0.00000000 0.00520000
v -0.00170000 0.00000000 0.00520000
v 0.00170000 0.00000000 0.00520000
v 0.00170000 0.00000000 0.00520000
v 0.00170000 0.00000000 0.00520000
v 0.00590000 0.00000000 0.00520000
v 0.00590000 0.00000000 0.00520000
v 0.00590000 0.00000000 0.00520000
v 0.00590000 0.00000000 0.00860000
v 0.00590000 0.00000000 0.00860000
v 0.00590000 0.00000000 0.00860000
v 0.00250000 0.00000000 0.00860000
v 0.00250000 0.00000000 0.00860000
v 0.00250000 0.00000000 0.00860000
v 0.00250000 0.00000000 0.00520000
v 0.00250000 0.00000000 0.00520000
v 0.00250000 0.00000000 0.00520000
v 0.00170000 0.00000000 0.00440000
v 0.00170000 0.00000000 0.00440000
v 0.00170000 0.00000000 0.00440000
v -0.00170000 0.00000000 0.00440000
v -0.00170000 0.00000000 0.00440000
v -0.00170000 0.00000000 0.00440000
v -0.00170000 0.00000000 0.00270000
v -0.00170000 0.00000000 0.00270000
v 0.00070000 -0.00000000 0.00100000
v 0.00070000 -0.00000000 0.00100000
v 0.00070000 -0.00000000 0.00100000
v -0.00170000 0.00000000 0.00200000
v -0.00170000 0.00000000 0.00200000
v -0.00170000 0.00000000 0.00200000
v 0.00170000 0.00000000 0.00200000
v 0.00170000 0.00000000 0.00200000
v 0.00170000 0.00000000 0.00200000
v 0.00170000 0.00000000 0.00270000
v 0.00170000 0.00000000 0.00270000
v -0.00070000 0.00000000 0.00100000
v -0.00070000 0.00000000 0.00100000
v -0.00070000 0.00000000 0.00100000
v -0.00250000 0.00000000 0.00440000
v -0.00250000 0.00000000 0.00440000
v -0.00250000 0.00000000 0.00440000
v -0.00590000 0.00000000 0.00440000
v -0.00590000 0.00000000 0.00440000
v -0.00590000 0.00000000 0.00440000
v -0.00590000 0.00000000 0.00270000
v -0.00590000 0.00000000 0.00270000
v -0.00250000 0.00000000 0.00100000
v -0.00250000 0.00000000 0.00100000
v -0.00250000 0.00000000 0.00100000
v -0.00590000 0.00000000 0.00100000
v -0.00590000 0.00000000 0.00100000
v -0.00590000 0.00000000 0.00100000
v -0.00250000 0.00000000 0.00270000
v -0.00250000 0.00000000 0.00270000
v 0.00590000 0.00000000 0.00440000
v 0.00590000 0.00000000 0.00440000
v 0.00590000 0.00000000 0.00440000
v 0.00250000 0.00000000 0.00440000
v 0.00250000 0.00000000 0.00440000
v 0.00250000 0.00000000 0.00440000
v 0.00250000 0.00000000 0.00270000
v 0.00250000 0.00000000 0.00270000
v 0.00490000 -0.00000000 0.00100000
v 0.00490000 -0.00000000 0.00100000
v 0.00490000 -0.00000000 0.00100000
v 0.00350000 0.00000000 0.00100000
v 0.00350000 0.00000000 0.00100000
v 0.00350000 0.00000000 0.00100000
v 0.00590000 0.00000000 0.00200000
v 0.00590000 0.00000000 0.00200000
v 0.00590000 0.00000000 0.00200000
v 0.00590000 0.00000000 0.00270000
v 0.00590000 0.00000000 0.00270000
v 0.00250000 0.00000000 0.00200000
v 0.00250000 0.00000000 0.00200000
v 0.00250000 0.00000000 0.00200000
v -0.00640000 0.00000000 0.00910000
v -0.00640000 0.00000000 0.00480000
v -0.00640000 0.00000000 0.00270000
v -0.00210000 0.00000000 0.00480000
v -0.00210000 0.00000000 0.00910000
v 0.00210000 0.00000000 0.00480000
v 0.00210000 0.00000000 0.00910000
v 0.00210000 0.00000000 0.00270000
v -0.00210000 0.00000000 0.00270000
v 0.00590000 -0.00890000 0.00860000
v 0.00590000 -0.00890000 0.00860000
v 0.00590000 -0.00890000 0.00860000
v 0.00250000 -0.00890000 0.00860000
v 0.00250000 -0.00890000 0.00860000
v 0.00250000 -0.00890000 0.00860000
v 0.00250000 -0.00890000 0.00520000
v 0.00250000 -0.00890000 0.00520000
v 0.00250000 -0.00890000 0.00520000
v 0.00590000 -0.00890000 0.00520000
v 0.00590000 -0.00890000 0.00520000
v 0.00590000 -0.00890000 0.00520000
v 0.00590000 -0.00890000 0.00440000
v 0.00590000 -0.00890000 0.00440000
v 0.00590000 -0.00890000 0.00440000
v 0.00250000 -0.00890000 0.00440000
v 0.00250000 -0.00890000 0.00440000
v 0.00250000 -0.00890000 0.00440000
v 0.00350000 -0.00890000 0.00100000
v 0.00350000 -0.00890000 0.00100000
v 0.00350000 -0.00890000 0.00100000
v 0.00490000 -0.00890000 0.00100000
v 0.00490000 -0.00890000 0.00100000
v 0.00490000 -0.00890000 0.00100000
v 0.00250000 -0.00890000 0.00200000
v 0.00250000 -0.00890000 0.00200000
v 0.00250000 -0.00890000 0.00200000
v 0.00590000 -0.00890000 0.00200000
v 0.00590000 -0.00890000 0.00200000
v 0.00590000 -0.00890000 0.00200000
v 0.00170000 -0.00890000 0.00860000
v 0.00170000 -0.00890000 0.00860000
v 0.00170000 -0.00890000 0.00860000
v -0.00170000 -0.00890000 0.00860000
v -0.00170000 -0.00890000 0.00860000
v -0.00170000 -0.00890000 0.00860000
v -0.00170000 -0.00890000 0.00520000
v -0.00170000 -0.00890000 0.00520000
v -0.00170000 -0.00890000 0.00520000
v 0.00170000 -0.00890000 0.00520000
v 0.00170000 -0.00890000 0.00520000
v 0.00170000 -0.00890000 0.00520000
v 0.00170000 -0.00890000 0.00440000
v 0.00170000 -0.00890000 0.00440000
v 0.00170000 -0.00890000 0.00440000
v -0.00170000 -0.00890000 0.00440000
v -0.00170000 -0.00890000 0.00440000
v -0.00170000 -0.00890000 0.00440000
v -0.00070000 -0.00890000 0.00100000
v -0.00070000 -0.00890000 0.00100000
v -0.00070000 -0.00890000 0.00100000
v 0.00070000 -0.00890000 0.00100000
v 0.00070000 -0.00890000 0.00100000
v 0.00070000 -0.00890000 0.00100000
v -0.00170000 -0.00890000 0.00200000
v -0.00170000 -0.00890000 0.00200000
v -0.00170000 -0.00890000 0.00200000
v 0.00170000 -0.00890000 0.00200000
v 0.00170000 -0.00890000 0.00200000
v 0.00170000 -0.00890000 0.00200000
v -0.00250000 -0.00890000 0.00860000
v -0.00250000 -0.00890000 0.00860000
v -0.00250000 -0.00890000 0.00860000
v -0.00590000 -0.00890000 0.00860000
v -0.00590000 -0.00890000 0.00860000
v -0.00590000 -0.00890000 0.00860000
v -0.00490000 -0.00890000 0.00520000
v -0.00490000 -0.00890000 0.00520000
v -0.00490000 -0.00890000 0.00520000
v -0.00350000 -0.00890000 0.00520000
v -0.00350000 -0.00890000 0.00520000
v -0.00350000 -0.00890000 0.00520000
v -0.00590000 -0.00890000 0.00620000
v -0.00590000 -0.00890000 0.00620000
v -0.00590000 -0.00890000 0.00620000
v -0.00250000 -0.00890000 0.00620000
v -0.00250000 -0.00890000 0.00620000
v -0.00250000 -0.00890000 0.00620000
v -0.00250000 -0.00890000 0.00440000
v -0.00250000 -0.00890000 0.00440000
v -0.00250000 -0.00890000 0.00440000
v -0.00590000 -0.00890000 0.00440000
v -0.00590000 -0.00890000 0.00440000
v -0.00590000 -0.00890000 0.00440000
v -0.00250000 -0.00890000 0.00100000
v -0.00250000 -0.00890000 0.00100000
v -0.00250000 -0.00890000 0.00100000
v -0.00590000 -0.00890000 0.00100000
v -0.00590000 -0.00890000 0.00100000
v -0.00590000 -0.00890000 0.00100000
vn 0.00000000 1.00000000 0.00000000
vn -0.00000000 0.00000000 -1.00000000
vn -1.00000000 0.00000000 0.00000000
vn 0.00000000 1.00000000 0.00000000
vn -1.00000000 0.00000000 0.00000000
vn 0.00000000 0.00000000 1.00000000
vn 0.00000000 1.00000000 0.00000000
vn 0.00000000 0.00000000 1.00000000
vn 1.00000000 0.00000000 0.00000000
vn 0.00000000 1.00000000 0.00000000
vn -0.00000000 0.00000000 -1.00000000
vn 1.00000000 0.00000000 0.00000000
vn 0.00000000 -1.00000000 0.00000000
vn -1.00000000 0.00000000 0.00000000
vn -0.00000000 0.00000000 -1.00000000
vn 1.00000000 0.00000000 0.00000000
vn 0.00000000 -1.00000000 0.00000000
vn -0.00000000 0.00000000 -1.00000000
vn 0.00000000 -1.00000000 0.00000000
vn 0.00000000 0.00000000 1.00000000
vn 0.00000000 0.00000000 1.00000000
vn 0.00000000 -1.00000000 0.00000000
vn 0.00000000 0.00000000 1.00000000
vn 0.00000000 -1.00000000 0.00000000
vn 0.00000000 -1.00000000 0.00000000
vn 0.00000000 0.00000000 1.00000000
vn -1.00000000 0.00000000 0.00000000
vn 0.00000000 -1.00000000 0.00000000
vn 0.00000000 0.00000000 1.00000000
vn 1.00000000 0.00000000 0.00000000
vn 0.00000000 0.00000000 -1.00000000
vn 0.00000000 -1.00000000 0.00000000
vn 1.00000000 0.00000000 0.00000000
vn 1.00000000 0.00000000 0.00000000
vn 0.00000000 -1.00000000 0.00000000
vn 1.00000000 0.00000000 0.00000000
vn 0.00000000 -1.00000000 0.00000000
vn 1.00000000 0.00000000 0.00000000
vn 0.00000000 -1.00000000 0.00000000
vn 1.00000000 0.00000000 0.00000000
vn 0.00000000 -1.00000000 0.00000000
vn 0.00000000 0.00000000 -1.00000000
vn -1.00000000 0.00000000 0.00000000
vn 0.00000000 -1.00000000 0.00000000
vn 0.00000000 -1.00000000 0.00000000
vn -1.00000000 0.00000000 0.00000000
vn 0.00000000 -1.00000000 0.00000000
vn 0.00000000 0.00000000 -1.00000000
vn -1.00000000 0.00000000 0.00000000
vn -1.00000000 0.00000000 0.00000000
vn 0.00000000 -1.00000000 0.00000000
vn -1.00000000 0.00000000 0.00000000
vn 0.00000000 -1.00000000 0.00000000
vn 0.00000000 0.00000000 -1.00000000
vn 0.00000000 0.00000000 -1.00000000
vn 0.00000000 -1.00000000 0.00000000
vn 0.00000000 -1.00000000 0.00000000
vn 0.00000000 0.00000000 -1.00000000
vn 0.00000000 -1.00000000 0.00000000
vn 0.00000000 0.00000000 -1.00000000
vn 0.00000000 -1.00000000 0.00000000
vn 0.00000000 0.00000000 -1.00000000
vn 0.70710700 0.00000000 -0.70710700
vn -0.70710700 0.00000000 -0.70710700
vn 0.00000000 0.00000000 -1.00000000
vn 0.00000000 -1.00000000 0.00000000
vn 0.00000000 -1.00000000 0.00000000
vn 0.70710700 0.00000000 -0.70710700
vn 1.00000000 0.00000000 0.00000000
vn 0.00000000 -1.00000000 0.00000000
vn 0.00000000 0.00000000 1.00000000
vn 1.00000000 0.00000000 0.00000000
vn 0.00000000 -1.00000000 0.00000000
vn -1.00000000 0.00000000 -0.00000000
vn 0.00000000 0.00000000 1.00000000
vn 0.00000000 -1.00000000 0.00000000
vn -1.00000000 0.00000000 -0.00000000
vn -0.70710700 0.00000000 -0.70710700
vn 0.00000000 -1.00000000 0.00000000
vn 0.00000000 0.00000000 1.00000000
vn 1.00000000 0.00000000 0.00000000
vn 0.00000000 0.00000000 1.00000000
vn -1.00000000 0.00000000 0.00000000
vn 0.00000000 -1.00000000 0.00000000
vn 0.00000000 -1.00000000 0.00000000
vn 0.00000000 0.00000000 -1.00000000
vn -1.00000000 0.00000000 0.00000000
vn 0.00000000 -1.00000000 0.00000000
vn 1.00000000 0.00000000 0.00000000
vn 0.00000000 0.00000000 -1.00000000
vn 1.00000000 0.00000000 0.00000000
vn 0.00000000 0.00000000 -1.00000000
vn 0.00000000 -1.00000000 0.00000000
vn 1.00000000 0.00000000 0.00000000
vn 0.00000000 0.00000000 1.00000000
vn 0.00000000 -1.00000000 0.00000000
vn -1.00000000 0.00000000 0.00000000
vn 0.00000000 0.00000000 1.00000000
vn 0.00000000 -1.00000000 0.00000000
vn -1.00000000 0.00000000 0.00000000
vn 0.00000000 -1.00000000 0.00000000
vn 0.00000000 0.00000000 -1.00000000
vn -0.00000000 0.00000000 1.00000000
vn 1.00000000 0.00000000 0.00000000
vn 0.00000000 -1.00000000 0.00000000
vn -1.00000000 0.00000000 0.00000000
vn -0.00000000 0.00000000 1.00000000
vn 0.00000000 -1.00000000 0.00000000
vn -1.00000000 0.00000000 0.00000000
vn 0.00000000 -1.00000000 0.00000000
vn 0.70710700 0.00000000 -0.70710700
vn 0.00000000 0.00000000 -1.00000000
vn 0.00000000 -1.00000000 0.00000000
vn 0.00000000 -1.00000000 0.00000000
vn -1.00000000 0.00000000 0.00000000
vn -0.70710700 0.00000000 -0.70710700
vn 0.00000000 -1.00000000 0.00000000
vn 1.00000000 0.00000000 0.00000000
vn 0.70710700 0.00000000 -0.70710700
vn 1.00000000 0.00000000 0.00000000
vn 0.00000000 -1.00000000 0.00000000
vn -0.70710700 0.00000000 -0.70710700
vn 0.00000000 0.00000000 -1.00000000
vn 0.00000000 -1.00000000 0.00000000
vn 1.00000000 0.00000000 0.00000000
vn 0.00000000 -1.00000000 0.00000000
vn -0.00000000 0.00000000 1.00000000
vn -1.00000000 0.00000000 -0.00000000
vn 0.00000000 -1.00000000 0.00000000
vn -0.00000000 0.00000000 1.00000000
vn -1.00000000 0.00000000 -0.00000000
vn 0.00000000 -1.00000000 0.00000000
vn 1.00000000 0.00000000 0.00000000
vn 0.00000000 -1.00000000 0.00000000
vn 0.00000000 0.00000000 -1.00000000
vn -1.00000000 0.00000000 -0.00000000
vn 0.00000000 0.00000000 -1.00000000
vn 0.00000000 -1.00000000 0.00000000
vn 0.00000000 -1.00000000 0.00000000
vn 1.00000000 0.00000000 0.00000000
vn 0.00000000 -1.00000000 0.00000000
vn 1.00000000 0.00000000 0.00000000
vn -0.00000000 0.00000000 1.00000000
vn -1.00000000 0.00000000 0.00000000
vn 0.00000000 -1.00000000 0.00000000
vn -0.00000000 0.00000000 1.00000000
vn 0.00000000 -1.00000000 0.00000000
vn -1.00000000 0.00000000 0.00000000
vn 0.00000000 -1.00000000 0.00000000
vn 0.70710700 0.00000000 -0.70710700
vn 0.00000000 0.00000000 -1.00000000
vn 0.00000000 -1.00000000 0.00000000
vn -0.70710700 0.00000000 -0.70710700
vn 0.00000000 0.00000000 -1.00000000
vn 0.00000000 -1.00000000 0.00000000
vn 1.00000000 0.00000000 0.00000000
vn 0.70710700 0.00000000 -0.70710700
vn 1.00000000 0.00000000 0.00000000
vn 0.00000000 -1.00000000 0.00000000
vn -1.00000000 0.00000000 0.00000000
vn 0.00000000 -1.00000000 0.00000000
vn -0.70710700 0.00000000 -0.70710700
vn 0.00000000 -1.00000000 0.00000000
vn 0.00000000 -1.00000000 0.00000000
vn 0.00000000 -1.00000000 0.00000000
vn 0.00000000 -1.00000000 0.00000000
vn 0.00000000 -1.00000000 0.00000000
vn 0.00000000 -1.00000000 0.00000000
vn 0.00000000 -1.00000000 0.00000000
vn 0.00000000 -1.00000000 0.00000000
vn 0.00000000 -1.00000000 0.00000000
vn 1.00000000 0.00000000 0.00000000
vn 0.00000000 -1.00000000 0.00000000
vn 0.00000000 0.00000000 1.00000000
vn -1.00000000 0.00000000 0.00000000
vn 0.00000000 -1.00000000 0.00000000
vn 0.00000000 0.00000000 1.00000000
vn 0.00000000 0.00000000 -1.00000000
vn 0.00000000 -1.00000000 0.00000000
vn -1.00000000 0.00000000 0.00000000
vn 0.00000000 0.00000000 -1.00000000
vn 1.00000000 0.00000000 0.00000000
vn 0.00000000 -1.00000000 0.00000000
vn -0.00000000 0.00000000 1.00000000
vn 0.00000000 -1.00000000 0.00000000
vn 1.00000000 0.00000000 0.00000000
vn 0.00000000 -1.00000000 0.00000000
vn -1.00000000 0.00000000 0.00000000
vn -0.00000000 0.00000000 1.00000000
vn 0.00000000 -1.00000000 0.00000000
vn -0.70710700 0.00000000 -0.70710700
vn 0.00000000 0.00000000 -1.00000000
vn 0.00000000 0.00000000 -1.00000000
vn 0.00000000 -1.00000000 0.00000000
vn 0.70710700 0.00000000 -0.70710700
vn -1.00000000 0.00000000 0.00000000
vn 0.00000000 -1.00000000 0.00000000
vn -0.70710700 0.00000000 -0.70710700
vn 0.70710700 0.00000000 -0.70710700
vn 1.00000000 0.00000000 0.00000000
vn 0.00000000 -1.00000000 0.00000000
vn 0.00000000 -1.00000000 0.00000000
vn 1.00000000 0.00000000 0.00000000
vn 0.00000000 0.00000000 1.00000000
vn 0.00000000 -1.00000000 0.00000000
vn 0.00000000 0.00000000 1.00000000
vn -1.00000000 0.00000000 0.00000000
vn 0.00000000 0.00000000 -1.00000000
vn 0.00000000 -1.00000000 0.00000000
vn -1.00000000 0.00000000 0.00000000
vn 0.00000000 0.00000000 -1.00000000
vn 1.00000000 0.00000000 0.00000000
vn 0.00000000 -1.00000000 0.00000000
vn -0.00000000 0.00000000 1.00000000
vn 0.00000000 -1.00000000 0.00000000
vn 1.00000000 0.00000000 0.00000000
vn 0.00000000 -1.00000000 0.00000000
vn -1.00000000 0.00000000 0.00000000
vn -0.00000000 0.00000000 1.00000000
vn 0.00000000 0.00000000 -1.00000000
vn -0.70710700 0.00000000 -0.70710700
vn 0.00000000 -1.00000000 0.00000000
vn 0.00000000 0.00000000 -1.00000000
vn 0.70710700 0.00000000 -0.70710700
vn 0.00000000 -1.00000000 0.00000000
vn 0.00000000 -1.00000000 0.00000000
vn -1.00000000 0.00000000 0.00000000
vn -0.70710700 0.00000000 -0.70710700
vn 0.00000000 -1.00000000 0.00000000
vn 1.00000000 0.00000000 0.00000000
vn 0.70710700 0.00000000 -0.70710700
vn 0.00000000 -1.00000000 0.00000000
vn 0.00000000 0.00000000 1.00000000
vn 1.00000000 0.00000000 0.00000000
vn 0.00000000 0.00000000 1.00000000
vn -1.00000000 0.00000000 -0.00000000
vn 0.00000000 -1.00000000 0.00000000
vn -0.70710700 0.00000000 -0.70710700
vn 0.00000000 -1.00000000 0.00000000
vn 0.00000000 0.00000000 -1.00000000
vn 0.00000000 -1.00000000 0.00000000
vn 0.00000000 0.00000000 -1.00000000
vn 0.70710700 0.00000000 -0.70710700
vn -0.70710700 0.00000000 -0.70710700
vn -1.00000000 0.00000000 -0.00000000
vn 0.00000000 -1.00000000 0.00000000
vn 0.70710700 0.00000000 -0.70710700
vn 0.00000000 -1.00000000 0.00000000
vn 1.00000000 0.00000000 0.00000000
vn -0.00000000 0.00000000 1.00000000
vn 0.00000000 -1.00000000 0.00000000
vn 1.00000000 0.00000000 0.00000000
vn -0.00000000 0.00000000 1.00000000
vn -1.00000000 0.00000000 -0.00000000
vn 0.00000000 -1.00000000 0.00000000
vn 1.00000000 0.00000000 0.00000000
vn 0.00000000 0.00000000 -1.00000000
vn 0.00000000 -1.00000000 0.00000000
vn 0.00000000 0.00000000 -1.00000000
vn -1.00000000 0.00000000 -0.00000000
vn 0.00000000 -1.00000000 0.00000000
f 1//1 4//4 7//7
f 7//7 10//10 1//1
f 15//15 2//2 11//11
f 11//11 18//18 15//15
f 8//8 6//6 20//20
f 20//20 21//21 8//8
f 6//6 23//23 20//20
f 6//6 26//26 23//23
f 21//21 29//29 8//8
f 33//33 9//9 34//34
f 34//34 36//36 33//33
f 9//9 38//38 34//34
f 12//12 9//9 33//33
f 9//9 30//30 38//38
f 36//36 40//40 33//33
f 33//33 16//16 12//12
f 5//5 43//43 46//46
f 49//49 50//50 43//43
f 43//43 5//5 49//49
f 49//49 52//52 50//50
f 3//3 14//14 49//49
f 49//49 5//5 3//3
f 46//46 27//27 5//5
f 17//17 32//32 47//47
f 47//47 13//13 17//17
f 48//48 55//55 58//58
f 48//48 31//31 60//60
f 60//60 55//55 48//48
f 31//31 42//42 60//60
f 58//58 54//54 48//48
f 24//24 25//25 45//45
f 163//163 45//45 44//44
f 164//164 44//44 51//51
f 165//165 51//51 53//53
f 19//19 24//24 163//163
f 166//166 61//61 66//66
f 166//166 67//67 61//61
f 167//167 70//70 67//67
f 67//67 166//166 167//167
f 167//167 163//163 73//73
f 163//163 164//164 76//76
f 73//73 70//70 167//167
f 164//164 66//66 76//76
f 76//76 73//73 163//163
f 22//22 19//19 167//167
f 168//168 169//169 79//79
f 169//169 167//167 84//84
f 84//84 79//79 169//169
f 166//166 85//85 84//84
f 84//84 167//167 166//166
f 166//166 168//168 88//88
f 88//88 85//85 166//166
f 28//28 22//22 169//169
f 168//168 35//35 93//93
f 35//35 39//39 96//96
f 96//96 93//93 35//35
f 169//169 99//99 96//96
f 96//96 39//39 169//169
f 168//168 101//101 99//99
f 99//99 169//169 168//168
f 170//170 168//168 105//105
f 168//168 166//166 108//108
f 108//108 105//105 168//168
f 171//171 110//110 108//108
f 108//108 166//166 171//171
f 56//56 59//59 113//113
f 171//171 56//56 114//114
f 59//59 117//117 113//113
f 170//170 121//121 117//117
f 56//56 124//124 114//114
f 117//117 59//59 170//170
f 113//113 124//124 56//56
f 171//171 166//166 126//126
f 166//166 164//164 129//129
f 129//129 126//126 166//166
f 165//165 132//132 129//129
f 129//129 164//164 165//165
f 56//56 134//134 138//138
f 171//171 139//139 134//134
f 165//165 57//57 138//138
f 134//134 56//56 171//171
f 138//138 57//57 56//56
f 37//37 35//35 141//141
f 168//168 145//145 141//141
f 141//141 35//35 168//168
f 170//170 147//147 145//145
f 145//145 168//168 170//170
f 59//59 41//41 149//149
f 149//149 152//152 59//59
f 41//41 155//155 149//149
f 37//37 159//159 155//155
f 170//170 59//59 161//161
f 155//155 41//41 37//37
f 152//152 161//161 59//59
f 161//161 147//147 170//170
f 141//141 159//159 37//37
f 138//138 132//132 165//165
f 126//126 139//139 171//171
f 114//114 110//110 171//171
f 105//105 121//121 170//170
f 93//93 101//101 168//168
f 169//169 39//39 28//28
f 79//79 88//88 168//168
f 167//167 169//169 22//22
f 66//66 164//164 166//166
f 163//163 167//167 19//19
f 53//53 57//57 165//165
f 51//51 165//165 164//164
f 44//44 164//164 163//163
f 45//45 163//163 24//24
f 174//174 95//95 98//98
f 98//98 177//177 174//174
f 173//173 176//176 179//179
f 179//179 183//183 173//173
f 182//182 91//91 94//94
f 94//94 172//172 182//182
f 178//178 102//102 92//92
f 92//92 181//181 178//178
f 175//175 97//97 100//100
f 100//100 180//180 175//175
f 184//184 143//143 146//146
f 146//146 189//189 184//184
f 185//185 190//190 194//194
f 185//185 197//197 190//190
f 185//185 187//187 197//197
f 194//194 201//201 185//185
f 186//186 200//200 158//158
f 200//200 156//156 158//158
f 158//158 142//142 186//186
f 199//199 195//195 150//150
f 150//150 157//157 199//199
f 192//192 154//154 151//151
f 151//151 193//193 192//192
f 198//198 162//162 153//153
f 153//153 191//191 198//198
f 188//188 144//144 148//148
f 148//148 196//196 188//188
f 148//148 160//160 196//196
f 204//204 80//80 82//82
f 82//82 206//206 204//204
f 202//202 205//205 209//209
f 209//209 213//213 202//202
f 212//212 89//89 81//81
f 81//81 203//203 212//212
f 208//208 86//86 90//90
f 90//90 211//211 208//208
f 207//207 83//83 87//87
f 87//87 210//210 207//207
f 214//214 103//103 107//107
f 107//107 219//219 214//214
f 215//215 222//222 225//225
f 215//215 226//226 222//222
f 215//215 217//217 226//226
f 225//225 229//229 215//215
f 216//216 230//230 120//120
f 230//230 118//118 120//120
f 120//120 104//104 216//216
f 231//231 224//224 111//111
f 111//111 119//119 231//231
f 220//220 123//123 112//112
f 112//112 223//223 220//220
f 228//228 116//116 122//122
f 122//122 221//221 228//228
f 218//218 106//106 109//109
f 109//109 227//227 218//218
f 109//109 115//115 227//227
f 233//233 71//71 75//75
f 75//75 235//235 233//233
f 232//232 239//239 241//241
f 232//232 246//246 239//239
f 232//232 237//237 246//246
f 241//241 248//248 232//232
f 249//249 69//69 72//72
f 72//72 234//234 249//249
f 247//247 243//243 63//63
f 63//63 68//68 247//247
f 240//240 65//65 62//62
f 62//62 242//242 240//240
f 244//244 78//78 64//64
f 64//64 238//238 244//244
f 236//236 74//74 77//77
f 77//77 245//245 236//236
f 250//250 127//127 130//130
f 130//130 253//253 250//250
f 256//256 133//133 140//140
f 140//140 252//252 256//256
f 140//140 125//125 252//252
f 259//259 137//137 135//135
f 135//135 257//257 259//259
f 254//254 128//128 131//131
f 131//131 260//260 254//254
f 131//131 136//136 260//260
f 251//251 255//255 261//261
f 261//261 258//258 251//251

