####
#
# OBJ File Generated by Meshlab
#
####
# Object male-connector-minimal_collision_1.obj
#
# Vertices: 95
# Faces: 186
#
####
vn 0.7101448 0.7039850 0.0099765
v 0.0070078 0.0095543 0.0092977
vn 0.7105831 0.7035213 -0.0113766
v 0.0070078 0.0095543 0.0002830
vn 0.7274755 0.6636833 0.1740803
v 0.0070023 0.0095543 0.0094931
vn 0.9934523 -0.1136759 0.0114237
v 0.0070078 0.0002146 0.0092977
vn 0.9933951 -0.1128344 -0.0208460
v 0.0070078 0.0002146 0.0002830
vn 0.7076080 0.7061386 -0.0256768
v 0.0070037 0.0095543 0.0001543
vn 0.5190204 0.6294380 0.5782955
v 0.0069282 0.0095543 0.0096498
vn 0.9706016 -0.0943700 0.2214206
v 0.0070023 0.0002146 0.0094931
vn 0.9241886 -0.3513002 0.1498792
v 0.0069598 0.0000181 0.0094931
vn 0.9195501 -0.3929661 0.0023019
v 0.0069612 0.0000181 0.0092977
vn 0.9198083 -0.3922823 -0.0082068
v 0.0069612 0.0000181 0.0002830
vn 0.9245451 -0.3456959 -0.1603456
v 0.0069570 0.0000181 0.0000866
vn 0.9659007 -0.0897530 -0.2428585
v 0.0069982 0.0002146 0.0000866
vn 0.7230147 0.6804982 -0.1190465
v 0.0070009 0.0095543 0.0000866
vn 0.1230640 0.6715643 0.7306550
v 0.0067609 0.0095543 0.0097078
vn 0.6676920 -0.0681543 0.7413113
v 0.0069282 0.0002146 0.0096498
vn 0.6512033 -0.2508706 0.7162390
v 0.0069076 0.0000181 0.0096314
vn 0.4844022 -0.6959900 0.5300495
v 0.0068788 -0.0000888 0.0096062
vn 0.5937808 -0.8029695 0.0516177
v 0.0068884 -0.0000937 0.0094931
vn 0.6037465 -0.7971584 -0.0053660
v 0.0068884 -0.0000937 0.0002830
vn 0.5772716 -0.8147904 -0.0536101
v 0.0068871 -0.0000927 0.0000866
vn 0.4711632 -0.6960315 -0.5417984
v 0.0068775 -0.0000888 -0.0000236
vn 0.6368636 -0.2292869 -0.7360925
v 0.0069063 0.0000181 -0.0000449
vn 0.6414427 -0.0589267 -0.7649045
v 0.0069241 0.0002146 -0.0000594
vn 0.5250859 0.6343797 -0.5673159
v 0.0069365 0.0095543 -0.0000981
vn 0.6759283 0.6870131 -0.2667095
v 0.0069612 0.0095543 -0.0000488
vn 0.1572697 -0.0830349 0.9840587
v 0.0067609 0.0002146 0.0097078
vn -0.1230639 0.6715646 0.7306547
v -0.0067609 0.0095543 0.0097078
vn 0.1053062 -0.3020930 0.9474441
v 0.0067609 0.0000181 0.0096711
vn 0.0411739 -0.7764703 0.6288073
v 0.0067609 -0.0000937 0.0096130
vn 0.0121657 -0.9879174 0.1545029
v 0.0057813 -0.0003796 0.0087097
vn 0.0376454 -0.9927230 0.1143851
v 0.0059308 -0.0003796 0.0086623
vn 0.0901030 -0.9909065 0.0999287
v 0.0059363 -0.0003796 0.0086604
vn 0.1511298 -0.9882938 0.0208624
v 0.0060008 -0.0003796 0.0085134
vn 0.1565559 -0.9876684 0.0012151
v 0.0060077 -0.0003796 0.0083238
vn 0.1564533 -0.9876845 -0.0013225
v 0.0060077 -0.0003796 0.0022424
vn 0.1372479 -0.9904068 -0.0160436
v 0.0059953 -0.0003796 0.0020461
vn 0.0399557 -0.7649007 -0.6429078
v 0.0067609 -0.0000927 -0.0000304
vn 0.0900578 -0.2548187 -0.9627861
v 0.0067609 0.0000181 -0.0000778
vn 0.0830925 -0.9958479 -0.0371828
v 0.0059336 -0.0003796 0.0018933
vn 0.0693053 -0.9965230 -0.0462470
v 0.0059308 -0.0003796 0.0018884
vn 0.0534251 -0.9973062 -0.0502600
v 0.0058417 -0.0003796 0.0017898
vn 0.0507140 -0.9974297 -0.0506163
v 0.0057443 -0.0003796 0.0016921
vn 0.0506479 -0.9974303 -0.0506705
v 0.0055481 -0.0003796 0.0014958
vn 0.0505053 -0.9974037 -0.0513336
v 0.0051557 -0.0003796 0.0011041
vn 0.0492514 -0.9971350 -0.0574119
v 0.0050583 -0.0003796 0.0010093
vn 0.0359752 -0.9945116 -0.0982472
v 0.0049568 -0.0003796 0.0009290
vn 0.0243082 -0.9944946 -0.1019293
v 0.0048059 -0.0003796 0.0008913
vn 0.0052254 -0.9885449 -0.1508371
v 0.0048017 -0.0003796 0.0008903
vn 0.1358974 -0.0708422 -0.9881869
v 0.0067609 0.0002146 -0.0001078
vn 0.1303335 0.6702772 -0.7305762
v 0.0067609 0.0095543 -0.0001697
vn 0.2536792 0.6999533 -0.6676168
v 0.0067636 0.0095543 -0.0001687
vn -0.1572698 -0.0830348 0.9840587
v -0.0067609 0.0002146 0.0097078
vn -0.5166963 0.6300106 0.5797514
v -0.0069282 0.0095543 0.0096498
vn -0.1053061 -0.3020931 0.9474441
v -0.0067609 0.0000181 0.0096711
vn -0.0411739 -0.7764704 0.6288071
v -0.0067609 -0.0000937 0.0096130
vn -0.0122121 -0.9879153 0.1545130
v -0.0057813 -0.0003796 0.0087097
vn -0.0378591 -0.7515327 -0.6586087
v -0.0067609 -0.0000927 -0.0000304
vn -0.0900579 -0.2548188 -0.9627861
v -0.0067609 0.0000181 -0.0000778
vn -0.0099802 -0.9883036 -0.1521725
v -0.0057813 -0.0003796 0.0008903
vn 0.0051854 0.7030388 -0.7111326
v 0.0065647 0.0095543 -0.0001726
vn -0.1358974 -0.0708422 -0.9881869
v -0.0067609 0.0002146 -0.0001078
vn -0.6676856 -0.0681665 0.7413160
v -0.0069282 0.0002146 0.0096498
vn -0.6512033 -0.2508706 0.7162390
v -0.0069076 0.0000181 0.0096314
vn -0.6398410 0.7059098 0.3038010
v -0.0069543 0.0095543 0.0095956
vn -0.4844013 -0.6959913 0.5300486
v -0.0068788 -0.0000888 0.0096062
vn -0.0802919 -0.9910883 0.1062891
v -0.0059363 -0.0003796 0.0086604
vn -0.4788996 -0.6846542 -0.5494577
v -0.0068775 -0.0000888 -0.0000236
vn -0.6368636 -0.2292869 -0.7360925
v -0.0069063 0.0000181 -0.0000449
vn -0.0826740 -0.9906546 -0.1084822
v -0.0059295 -0.0003796 0.0009290
vn -0.0051854 0.7030388 -0.7111326
v -0.0065647 0.0095543 -0.0001726
vn -0.6414281 -0.0589239 -0.7649170
v -0.0069241 0.0002146 -0.0000594
vn -0.1483744 0.6656698 -0.7313472
v -0.0067609 0.0095543 -0.0001697
vn -0.9706020 -0.0943813 0.2214134
v -0.0070023 0.0002146 0.0094931
vn -0.9241886 -0.3513002 0.1498792
v -0.0069598 0.0000181 0.0094931
vn -0.7274858 0.6640423 0.1726625
v -0.0070023 0.0095543 0.0094931
vn -0.5937803 -0.8029699 0.0516171
v -0.0068884 -0.0000937 0.0094931
vn -0.1513318 -0.9882690 0.0205721
v -0.0060008 -0.0003796 0.0085134
vn -0.1051899 -0.9931459 0.0509553
v -0.0059391 -0.0003796 0.0086555
vn -0.5967865 -0.8006946 -0.0522883
v -0.0068871 -0.0000927 0.0000866
vn -0.9245451 -0.3456959 -0.1603456
v -0.0069570 0.0000181 0.0000866
vn -0.1188488 -0.9920658 -0.0409946
v -0.0059926 -0.0003796 0.0010615
vn -0.1452162 -0.9892223 -0.0187477
v -0.0059940 -0.0003796 0.0010663
vn -0.9659009 -0.0897504 -0.2428586
v -0.0069982 0.0002146 0.0000866
vn -0.5656808 0.6242160 -0.5388503
v -0.0069365 0.0095543 -0.0000981
vn -0.9934523 -0.1136758 0.0114237
v -0.0070078 0.0002146 0.0092977
vn -0.9195501 -0.3929660 0.0023019
v -0.0069612 0.0000181 0.0092977
vn -0.7101706 0.7039590 0.0099769
v -0.0070078 0.0095543 0.0092977
vn -0.1565452 -0.9876701 0.0011680
v -0.0060077 -0.0003796 0.0083170
vn -0.6064897 -0.7950756 -0.0050083
v -0.0068884 -0.0000937 0.0002830
vn -0.9198083 -0.3922823 -0.0082068
v -0.0069612 0.0000181 0.0002830
vn -0.1568390 -0.9876209 -0.0025559
v -0.0060077 -0.0003796 0.0012559
vn -0.9933951 -0.1128344 -0.0208460
v -0.0070078 0.0002146 0.0002830
vn -0.7253233 0.6748222 -0.1360928
v -0.0070009 0.0095543 0.0000866
vn -0.7108862 0.7031975 -0.0124154
v -0.0070078 0.0095543 0.0002830
# 95 vertices, 0 vertices normals

f 1//1 2//2 6//6
f 1//1 6//6 14//14
f 1//1 14//14 26//26
f 1//1 26//26 25//25
f 1//1 25//25 52//52
f 1//1 52//52 51//51
f 1//1 51//51 61//61
f 1//1 61//61 71//71
f 1//1 71//71 73//73
f 1//1 73//73 85//85
f 1//1 85//85 94//94
f 1//1 94//94 95//95
f 1//1 95//95 88//88
f 1//1 88//88 76//76
f 1//1 76//76 65//65
f 1//1 65//65 54//54
f 1//1 54//54 28//28
f 1//1 28//28 15//15
f 1//1 15//15 7//7
f 1//1 7//7 3//3
f 1//1 3//3 8//8
f 1//1 8//8 4//4
f 1//1 4//4 5//5
f 1//1 5//5 2//2
f 2//2 5//5 6//6
f 3//3 7//7 16//16
f 3//3 16//16 8//8
f 4//4 8//8 9//9
f 4//4 9//9 10//10
f 4//4 10//10 11//11
f 4//4 11//11 5//5
f 5//5 11//11 12//12
f 5//5 12//12 13//13
f 5//5 13//13 14//14
f 5//5 14//14 6//6
f 7//7 15//15 27//27
f 7//7 27//27 16//16
f 8//8 16//16 17//17
f 8//8 17//17 9//9
f 9//9 17//17 18//18
f 9//9 18//18 19//19
f 9//9 19//19 10//10
f 10//10 19//19 20//20
f 10//10 20//20 11//11
f 11//11 20//20 21//21
f 11//11 21//21 12//12
f 12//12 21//21 22//22
f 12//12 22//22 23//23
f 12//12 23//23 13//13
f 13//13 23//23 24//24
f 13//13 24//24 25//25
f 13//13 25//25 26//26
f 13//13 26//26 14//14
f 15//15 28//28 53//53
f 15//15 53//53 27//27
f 16//16 27//27 17//17
f 17//17 27//27 29//29
f 17//17 29//29 18//18
f 18//18 29//29 30//30
f 18//18 30//30 31//31
f 18//18 31//31 32//32
f 18//18 32//32 33//33
f 18//18 33//33 34//34
f 18//18 34//34 19//19
f 19//19 34//34 35//35
f 19//19 35//35 36//36
f 19//19 36//36 20//20
f 20//20 36//36 21//21
f 21//21 36//36 37//37
f 21//21 37//37 22//22
f 22//22 38//38 39//39
f 22//22 39//39 23//23
f 22//22 37//37 40//40
f 22//22 40//40 41//41
f 22//22 41//41 42//42
f 22//22 42//42 43//43
f 22//22 43//43 44//44
f 22//22 44//44 45//45
f 22//22 45//45 46//46
f 22//22 46//46 47//47
f 22//22 47//47 48//48
f 22//22 48//48 49//49
f 22//22 49//49 38//38
f 23//23 39//39 50//50
f 23//23 50//50 24//24
f 24//24 50//50 51//51
f 24//24 51//51 52//52
f 24//24 52//52 25//25
f 27//27 53//53 55//55
f 27//27 55//55 29//29
f 28//28 54//54 63//63
f 28//28 63//63 53//53
f 29//29 55//55 56//56
f 29//29 56//56 30//30
f 30//30 56//56 57//57
f 30//30 57//57 31//31
f 31//31 57//57 67//67
f 31//31 67//67 79//79
f 31//31 79//79 78//78
f 31//31 78//78 89//89
f 31//31 89//89 92//92
f 31//31 92//92 83//83
f 31//31 83//83 82//82
f 31//31 82//82 70//70
f 31//31 70//70 60//60
f 31//31 60//60 49//49
f 31//31 49//49 48//48
f 31//31 48//48 47//47
f 31//31 47//47 46//46
f 31//31 46//46 45//45
f 31//31 45//45 44//44
f 31//31 44//44 43//43
f 31//31 43//43 42//42
f 31//31 42//42 41//41
f 31//31 41//41 40//40
f 31//31 40//40 37//37
f 31//31 37//37 36//36
f 31//31 36//36 35//35
f 31//31 35//35 34//34
f 31//31 34//34 33//33
f 31//31 33//33 32//32
f 38//38 49//49 60//60
f 38//38 60//60 58//58
f 38//38 58//58 59//59
f 38//38 59//59 39//39
f 39//39 59//59 62//62
f 39//39 62//62 50//50
f 50//50 61//61 51//51
f 50//50 62//62 71//71
f 50//50 71//71 61//61
f 53//53 63//63 64//64
f 53//53 64//64 55//55
f 54//54 65//65 63//63
f 55//55 64//64 66//66
f 55//55 66//66 56//56
f 56//56 66//66 57//57
f 57//57 66//66 67//67
f 58//58 60//60 68//68
f 58//58 68//68 59//59
f 59//59 68//68 69//69
f 59//59 69//69 62//62
f 60//60 70//70 68//68
f 62//62 69//69 72//72
f 62//62 72//72 73//73
f 62//62 73//73 71//71
f 63//63 65//65 74//74
f 63//63 74//74 64//64
f 64//64 74//74 75//75
f 64//64 75//75 66//66
f 65//65 76//76 74//74
f 66//66 75//75 77//77
f 66//66 77//77 78//78
f 66//66 78//78 79//79
f 66//66 79//79 67//67
f 68//68 80//80 81//81
f 68//68 81//81 69//69
f 68//68 70//70 82//82
f 68//68 82//82 83//83
f 68//68 83//83 80//80
f 69//69 81//81 84//84
f 69//69 84//84 72//72
f 72//72 85//85 73//73
f 72//72 84//84 85//85
f 74//74 76//76 88//88
f 74//74 88//88 86//86
f 74//74 86//86 75//75
f 75//75 87//87 77//77
f 75//75 86//86 87//87
f 77//77 89//89 78//78
f 77//77 87//87 91//91
f 77//77 91//91 90//90
f 77//77 90//90 92//92
f 77//77 92//92 89//89
f 80//80 90//90 91//91
f 80//80 91//91 81//81
f 80//80 83//83 92//92
f 80//80 92//92 90//90
f 81//81 91//91 93//93
f 81//81 93//93 84//84
f 84//84 94//94 85//85
f 84//84 93//93 94//94
f 86//86 88//88 95//95
f 86//86 95//95 93//93
f 86//86 93//93 91//91
f 86//86 91//91 87//87
f 93//93 95//95 94//94
# 186 faces, 0 coords texture

# End of File
