####
#
# OBJ File Generated by Meshlab
#
####
# Object male-connector-minimal_collision_7.obj
#
# Vertices: 125
# Faces: 246
#
####
vn 0.0031531 0.7059085 0.7082961
v 0.0055859 -0.0003806 0.0045124
vn 0.0295138 0.6998160 0.7137131
v 0.0057818 -0.0003806 0.0045106
vn -0.0032009 0.7059180 0.7082864
v 0.0028355 -0.0003806 0.0045124
vn 0.0234404 -0.0241154 0.9994344
v 0.0057818 -0.0088017 0.0045077
vn 0.0620958 0.7039880 0.7074922
v 0.0058873 -0.0003806 0.0045028
vn 0.5187510 -0.0193376 0.8547067
v 0.0058908 -0.0088017 0.0045017
vn -0.0299698 0.6997060 0.7138020
v 0.0026425 -0.0003806 0.0045106
vn -0.0227638 -0.0242487 0.9994468
v 0.0026461 -0.0088017 0.0045077
vn 0.0171063 -0.5447035 0.8384542
v 0.0057818 -0.0089090 0.0045017
vn 0.4685018 -0.4912428 0.7342933
v 0.0058873 -0.0089056 0.0044996
vn 0.4176191 0.6195365 0.6646570
v 0.0058908 -0.0003806 0.0045024
vn 0.9261309 -0.1150372 0.3592326
v 0.0059528 -0.0088017 0.0043978
vn 0.9185902 -0.0035085 0.3951958
v 0.0059549 -0.0086058 0.0043978
vn -0.3686047 0.6261845 0.6870397
v 0.0025338 -0.0003806 0.0045024
vn -0.4818853 -0.0228606 0.8759360
v 0.0025338 -0.0088017 0.0045017
vn -0.4372304 -0.4996955 0.7477526
v 0.0025388 -0.0089056 0.0044996
vn -0.0168252 -0.5446729 0.8384798
v 0.0026461 -0.0089090 0.0045017
vn 0.0914918 -0.9424158 0.3216858
v 0.0057818 -0.0089630 0.0043978
vn 0.6619362 -0.6958851 0.2785401
v 0.0059153 -0.0089310 0.0043978
vn 0.6057488 0.7059185 0.3670797
v 0.0059528 -0.0003806 0.0044013
vn 0.9745725 -0.1941221 0.1119155
v 0.0060038 -0.0088017 0.0042017
vn 0.9914919 -0.0088064 0.1298703
v 0.0060077 -0.0086058 0.0042017
vn 0.7281930 0.6784037 0.0974856
v 0.0060084 -0.0003806 0.0042017
vn 0.6764732 0.6776913 0.2883029
v 0.0059549 -0.0003806 0.0043978
vn -0.5634019 0.7051945 0.4304405
v 0.0025313 -0.0003806 0.0044992
vn -0.8889102 -0.0052487 0.4580516
v 0.0024559 -0.0086058 0.0043978
vn -0.8993099 -0.1415053 0.4137850
v 0.0024591 -0.0088017 0.0043978
vn -0.6563877 0.6722712 0.3423547
v 0.0024552 -0.0003806 0.0043978
vn -0.6311060 -0.7158951 0.2986629
v 0.0025055 -0.0089310 0.0043978
vn -0.0869237 -0.9424490 0.3228531
v 0.0026461 -0.0089630 0.0043978
vn 0.1532875 -0.9830778 0.1003047
v 0.0057818 -0.0090078 0.0042017
vn 0.6808290 -0.7278013 0.0823244
v 0.0059397 -0.0089538 0.0042017
vn 0.9786562 -0.2042960 -0.0222543
v 0.0060038 -0.0088017 0.0022424
vn 0.9995251 -0.0088386 -0.0295225
v 0.0060077 -0.0086058 0.0022424
vn 0.7137365 0.7000524 -0.0225149
v 0.0060084 -0.0003806 0.0022424
vn -0.9880355 -0.0142727 0.1535649
v 0.0023925 -0.0086058 0.0042017
vn -0.7299475 0.6733211 0.1175392
v 0.0023907 -0.0003806 0.0042017
vn -0.9636119 -0.2334486 0.1302070
v 0.0023989 -0.0088017 0.0042017
vn -0.6470407 -0.7572772 0.0887104
v 0.0024768 -0.0089538 0.0042017
vn -0.1438232 -0.9844156 0.1011971
v 0.0026461 -0.0090078 0.0042017
vn 0.1660832 -0.9860916 -0.0063042
v 0.0057818 -0.0090078 0.0022424
vn 0.6829607 -0.7303557 -0.0120524
v 0.0059397 -0.0089538 0.0022424
vn 0.9679935 -0.1664661 -0.1878235
v 0.0059936 -0.0088017 0.0020462
vn 0.6895528 -0.7151650 -0.1142632
v 0.0059358 -0.0089504 0.0020462
vn 0.9755108 -0.0039328 -0.2199166
v 0.0059957 -0.0086058 0.0020462
vn 0.7213951 0.6726214 -0.1648321
v 0.0059960 -0.0003806 0.0020462
vn -0.9995607 -0.0143399 -0.0259377
v 0.0023925 -0.0086058 0.0022424
vn -0.7073973 0.7068160 0.0006405
v 0.0023904 -0.0003806 0.0040059
vn -0.9688998 -0.2469259 -0.0161479
v 0.0023989 -0.0088017 0.0022424
vn -0.6475694 -0.7619890 -0.0051699
v 0.0024768 -0.0089538 0.0022424
vn -0.1544058 -0.9880063 -0.0015735
v 0.0026461 -0.0090078 0.0022424
vn 0.0086278 -0.9999257 -0.0086182
v 0.0055859 -0.0090078 0.0020462
vn 0.1940016 -0.9773234 -0.0848680
v 0.0057818 -0.0090044 0.0020462
vn 0.8428379 -0.0951048 -0.5296974
v 0.0059316 -0.0088017 0.0018881
vn 0.6909390 -0.6009685 -0.4017961
v 0.0059146 -0.0089318 0.0019079
vn 0.6281089 0.6695693 -0.3964293
v 0.0059316 -0.0003806 0.0018877
vn -0.9717656 -0.0060694 -0.2358702
v 0.0024035 -0.0086058 0.0020462
vn -0.9591088 -0.2041912 -0.1960009
v 0.0024067 -0.0088017 0.0020462
vn -0.7074042 0.7068090 -0.0006625
v 0.0023904 -0.0003806 0.0024317
vn -0.7124613 0.7014498 -0.0191608
v 0.0023907 -0.0003806 0.0022424
vn -0.7071182 0.7059544 -0.0401529
v 0.0023911 -0.0003806 0.0022356
vn -0.6551902 -0.7481051 -0.1051883
v 0.0024793 -0.0089529 0.0020462
vn -0.1764066 -0.9817700 -0.0707711
v 0.0026461 -0.0090070 0.0020462
vn -0.0021427 -0.9999954 -0.0021419
v 0.0030381 -0.0090078 0.0018501
vn 0.0086294 -0.9999256 -0.0086325
v 0.0051939 -0.0090078 0.0016540
vn 0.1139992 -0.9869245 -0.1139483
v 0.0055859 -0.0090044 0.0018501
vn 0.2925504 -0.9174444 -0.2696482
v 0.0057864 -0.0089597 0.0018455
vn 0.7174336 -0.1086739 -0.6880982
v 0.0058420 -0.0088017 0.0017898
vn 0.5690081 -0.5969413 -0.5655891
v 0.0057240 -0.0089318 0.0017122
vn 0.5150398 0.7020851 -0.4917422
v 0.0058451 -0.0003806 0.0017930
vn -0.8287600 -0.1189711 -0.5468114
v 0.0024814 -0.0088017 0.0018739
vn -0.7217520 0.6699079 -0.1740619
v 0.0024028 -0.0003806 0.0020462
vn -0.6473740 0.7052006 -0.2891352
v 0.0024052 -0.0003806 0.0020406
vn -0.6646395 -0.6323246 -0.3980201
v 0.0025037 -0.0089352 0.0018987
vn -0.2737660 -0.9287948 -0.2497848
v 0.0026361 -0.0089639 0.0018402
vn -0.2591135 -0.9304395 -0.2591190
v 0.0028320 -0.0089639 0.0016441
vn -0.0989828 -0.9901520 -0.0990027
v 0.0030381 -0.0090070 0.0016540
vn -0.0016074 -0.9996518 -0.0263366
v 0.0036260 -0.0090078 0.0012621
vn 0.0064663 -0.9995883 -0.0279540
v 0.0048018 -0.0090078 0.0012621
vn 0.1138112 -0.9869560 -0.1138633
v 0.0053897 -0.0090044 0.0016540
vn 0.2759455 -0.9201042 -0.2779610
v 0.0051985 -0.0089597 0.0012575
vn 0.5671596 -0.5971820 -0.5671893
v 0.0053320 -0.0089318 0.0013199
vn 0.7032412 -0.1078679 -0.7027207
v 0.0057442 -0.0088017 0.0016920
vn 0.5001893 0.7070055 -0.4999540
v 0.0055516 -0.0003806 0.0014990
vn -0.7137259 -0.1288200 -0.6884772
v 0.0025721 -0.0088017 0.0017760
vn -0.6156772 0.6732722 -0.4094462
v 0.0024814 -0.0003806 0.0018739
vn -0.5132698 0.7026870 -0.4927325
v 0.0025717 -0.0003806 0.0017760
vn -0.5536880 -0.6251525 -0.5501037
v 0.0026946 -0.0089352 0.0017026
vn -0.2591009 -0.9304143 -0.2592224
v 0.0030282 -0.0089639 0.0014480
vn -0.0949234 -0.9892283 -0.1114317
v 0.0034302 -0.0090070 0.0012621
vn -0.0569731 -0.9726158 -0.2253278
v 0.0036260 -0.0089977 0.0010660
vn 0.0649985 -0.9722770 -0.2246167
v 0.0048018 -0.0089977 0.0010660
vn 0.1105469 -0.9864095 -0.1215552
v 0.0049977 -0.0090044 0.0012621
vn 0.2590077 -0.9140359 -0.3121754
v 0.0050012 -0.0089580 0.0010618
vn 0.5557121 -0.6013274 -0.5740988
v 0.0051361 -0.0089318 0.0011242
vn 0.7026672 -0.1073339 -0.7033764
v 0.0052541 -0.0088017 0.0012019
vn 0.4998936 0.7070947 -0.5001234
v 0.0053522 -0.0003806 0.0012997
vn -0.7015489 -0.1275543 -0.7011127
v 0.0027679 -0.0088017 0.0015799
vn -0.5002469 0.7070280 -0.4998644
v 0.0026730 -0.0003806 0.0016746
vn -0.5299888 -0.6329330 -0.5643650
v 0.0032828 -0.0089352 0.0011146
vn -0.7011613 -0.1282319 -0.7013769
v 0.0030618 -0.0088017 0.0012859
vn -0.6902971 -0.1280691 -0.7121012
v 0.0032580 -0.0088017 0.0010898
vn -0.2568974 -0.9305565 -0.2608993
v 0.0032240 -0.0089639 0.0012522
vn -0.2371265 -0.9177061 -0.3187265
v 0.0034227 -0.0089605 0.0010561
vn -0.3162701 -0.5855688 -0.7463796
v 0.0034829 -0.0089293 0.0009430
vn -0.0669158 -0.6663196 -0.7426578
v 0.0036260 -0.0089445 0.0009302
vn 0.0701028 -0.6662591 -0.7424180
v 0.0048018 -0.0089445 0.0009302
vn 0.3473006 -0.5790587 -0.7376133
v 0.0049382 -0.0089293 0.0009430
vn 0.6560020 -0.1095655 -0.7467642
v 0.0050554 -0.0088017 0.0010061
vn 0.6978371 -0.1069487 -0.7082270
v 0.0051560 -0.0088017 0.0011040
vn 0.4976658 0.7056590 -0.5043552
v 0.0051595 -0.0003806 0.0011072
vn -0.4943377 0.7034446 -0.5106819
v 0.0032577 -0.0003806 0.0010898
vn -0.6141446 -0.1300791 -0.7783996
v 0.0033622 -0.0088017 0.0009919
vn -0.3878351 -0.0797424 -0.9182729
v 0.0034603 -0.0088017 0.0009302
vn -0.0972694 -0.1151212 -0.9885777
v 0.0036260 -0.0088017 0.0008923
vn 0.1036071 -0.1141963 -0.9880409
v 0.0048018 -0.0088017 0.0008923
vn 0.4378664 -0.0767945 -0.8957543
v 0.0049573 -0.0088017 0.0009302
vn 0.3288704 0.6635616 -0.6719601
v 0.0049573 -0.0003806 0.0009288
vn 0.4358645 0.7067606 -0.5572357
v 0.0049605 -0.0003806 0.0009313
vn 0.4732844 0.6952499 -0.5409524
v 0.0050554 -0.0003806 0.0010057
vn -0.4504295 0.6891211 -0.5676491
v 0.0033622 -0.0003806 0.0009919
vn -0.3885579 0.7051330 -0.5931359
v 0.0033654 -0.0003806 0.0009898
vn -0.2901596 0.6711093 -0.6822168
v 0.0034603 -0.0003806 0.0009288
vn -0.0850774 0.6817409 -0.7266301
v 0.0036260 -0.0003806 0.0008894
vn 0.0906228 0.6802062 -0.7273974
v 0.0048018 -0.0003806 0.0008894
# 125 vertices, 0 vertices normals

f 1//1 2//2 5//5
f 1//1 5//5 11//11
f 1//1 11//11 20//20
f 1//1 20//20 24//24
f 1//1 24//24 23//23
f 1//1 23//23 35//35
f 1//1 35//35 46//46
f 1//1 46//46 56//56
f 1//1 56//56 70//70
f 1//1 70//70 84//84
f 1//1 84//84 97//97
f 1//1 97//97 111//111
f 1//1 111//111 120//120
f 1//1 120//120 119//119
f 1//1 119//119 118//118
f 1//1 118//118 125//125
f 1//1 125//125 124//124
f 1//1 124//124 123//123
f 1//1 123//123 122//122
f 1//1 122//122 121//121
f 1//1 121//121 112//112
f 1//1 112//112 99//99
f 1//1 99//99 87//87
f 1//1 87//87 86//86
f 1//1 86//86 73//73
f 1//1 73//73 72//72
f 1//1 72//72 61//61
f 1//1 61//61 60//60
f 1//1 60//60 59//59
f 1//1 59//59 48//48
f 1//1 48//48 37//37
f 1//1 37//37 28//28
f 1//1 28//28 25//25
f 1//1 25//25 14//14
f 1//1 14//14 7//7
f 1//1 7//7 3//3
f 1//1 3//3 8//8
f 1//1 8//8 4//4
f 1//1 4//4 2//2
f 2//2 4//4 6//6
f 2//2 6//6 5//5
f 3//3 7//7 8//8
f 4//4 8//8 17//17
f 4//4 17//17 9//9
f 4//4 9//9 10//10
f 4//4 10//10 6//6
f 5//5 6//6 11//11
f 6//6 10//10 12//12
f 6//6 12//12 13//13
f 6//6 13//13 11//11
f 7//7 14//14 15//15
f 7//7 15//15 8//8
f 8//8 15//15 16//16
f 8//8 16//16 17//17
f 9//9 17//17 30//30
f 9//9 30//30 18//18
f 9//9 18//18 10//10
f 10//10 18//18 19//19
f 10//10 19//19 12//12
f 11//11 13//13 20//20
f 12//12 19//19 21//21
f 12//12 21//21 22//22
f 12//12 22//22 13//13
f 13//13 22//22 23//23
f 13//13 23//23 24//24
f 13//13 24//24 20//20
f 14//14 25//25 15//15
f 15//15 26//26 27//27
f 15//15 27//27 16//16
f 15//15 25//25 28//28
f 15//15 28//28 26//26
f 16//16 27//27 29//29
f 16//16 29//29 30//30
f 16//16 30//30 17//17
f 18//18 30//30 40//40
f 18//18 40//40 31//31
f 18//18 31//31 19//19
f 19//19 31//31 32//32
f 19//19 32//32 21//21
f 21//21 32//32 42//42
f 21//21 42//42 33//33
f 21//21 33//33 34//34
f 21//21 34//34 22//22
f 22//22 34//34 35//35
f 22//22 35//35 23//23
f 26//26 36//36 27//27
f 26//26 28//28 37//37
f 26//26 37//37 36//36
f 27//27 38//38 29//29
f 27//27 36//36 38//38
f 29//29 39//39 40//40
f 29//29 40//40 30//30
f 29//29 38//38 39//39
f 31//31 40//40 51//51
f 31//31 51//51 64//64
f 31//31 64//64 78//78
f 31//31 78//78 79//79
f 31//31 79//79 65//65
f 31//31 65//65 52//52
f 31//31 52//52 41//41
f 31//31 41//41 42//42
f 31//31 42//42 32//32
f 33//33 43//43 34//34
f 33//33 42//42 44//44
f 33//33 44//44 43//43
f 34//34 43//43 45//45
f 34//34 45//45 35//35
f 35//35 45//45 46//46
f 36//36 47//47 49//49
f 36//36 49//49 38//38
f 36//36 37//37 48//48
f 36//36 48//48 59//59
f 36//36 59//59 47//47
f 38//38 49//49 50//50
f 38//38 50//50 39//39
f 39//39 50//50 51//51
f 39//39 51//51 40//40
f 41//41 52//52 66//66
f 41//41 66//66 53//53
f 41//41 53//53 42//42
f 42//42 53//53 44//44
f 43//43 54//54 45//45
f 43//43 44//44 55//55
f 43//43 55//55 54//54
f 44//44 53//53 55//55
f 45//45 54//54 46//46
f 46//46 54//54 56//56
f 47//47 57//57 58//58
f 47//47 58//58 49//49
f 47//47 59//59 60//60
f 47//47 60//60 61//61
f 47//47 61//61 57//57
f 49//49 58//58 62//62
f 49//49 62//62 50//50
f 50//50 62//62 63//63
f 50//50 63//63 51//51
f 51//51 63//63 77//77
f 51//51 77//77 64//64
f 52//52 65//65 66//66
f 53//53 66//66 67//67
f 53//53 67//67 55//55
f 54//54 55//55 68//68
f 54//54 68//68 56//56
f 55//55 67//67 69//69
f 55//55 69//69 68//68
f 56//56 68//68 70//70
f 57//57 71//71 58//58
f 57//57 61//61 72//72
f 57//57 72//72 73//73
f 57//57 73//73 71//71
f 58//58 71//71 74//74
f 58//58 74//74 62//62
f 62//62 74//74 63//63
f 63//63 74//74 75//75
f 63//63 75//75 76//76
f 63//63 76//76 77//77
f 64//64 77//77 78//78
f 65//65 79//79 93//93
f 65//65 93//93 80//80
f 65//65 80//80 66//66
f 66//66 80//80 81//81
f 66//66 81//81 67//67
f 67//67 81//81 82//82
f 67//67 82//82 69//69
f 68//68 69//69 83//83
f 68//68 83//83 84//84
f 68//68 84//84 70//70
f 69//69 82//82 83//83
f 71//71 85//85 74//74
f 71//71 73//73 86//86
f 71//71 86//86 87//87
f 71//71 87//87 85//85
f 74//74 88//88 75//75
f 74//74 85//85 88//88
f 75//75 88//88 76//76
f 76//76 89//89 77//77
f 76//76 88//88 89//89
f 77//77 89//89 90//90
f 77//77 90//90 78//78
f 78//78 90//90 91//91
f 78//78 91//91 92//92
f 78//78 92//92 79//79
f 79//79 92//92 93//93
f 80//80 93//93 81//81
f 81//81 94//94 95//95
f 81//81 95//95 82//82
f 81//81 93//93 94//94
f 82//82 95//95 96//96
f 82//82 96//96 83//83
f 83//83 96//96 84//84
f 84//84 96//96 97//97
f 85//85 98//98 88//88
f 85//85 87//87 99//99
f 85//85 99//99 98//98
f 88//88 100//100 89//89
f 88//88 98//98 101//101
f 88//88 101//101 102//102
f 88//88 102//102 100//100
f 89//89 103//103 90//90
f 89//89 100//100 103//103
f 90//90 103//103 104//104
f 90//90 104//104 91//91
f 91//91 104//104 105//105
f 91//91 105//105 106//106
f 91//91 106//106 107//107
f 91//91 107//107 92//92
f 92//92 107//107 108//108
f 92//92 108//108 94//94
f 92//92 94//94 93//93
f 94//94 108//108 95//95
f 95//95 108//108 109//109
f 95//95 109//109 110//110
f 95//95 110//110 96//96
f 96//96 110//110 111//111
f 96//96 111//111 97//97
f 98//98 99//99 101//101
f 99//99 112//112 101//101
f 100//100 102//102 113//113
f 100//100 113//113 105//105
f 100//100 105//105 104//104
f 100//100 104//104 103//103
f 101//101 112//112 102//102
f 102//102 112//112 113//113
f 105//105 113//113 114//114
f 105//105 114//114 115//115
f 105//105 115//115 106//106
f 106//106 115//115 116//116
f 106//106 116//116 107//107
f 107//107 116//116 108//108
f 108//108 116//116 117//117
f 108//108 117//117 109//109
f 109//109 117//117 118//118
f 109//109 118//118 119//119
f 109//109 119//119 120//120
f 109//109 120//120 110//110
f 110//110 120//120 111//111
f 112//112 121//121 113//113
f 113//113 121//121 122//122
f 113//113 122//122 123//123
f 113//113 123//123 114//114
f 114//114 123//123 124//124
f 114//114 124//124 115//115
f 115//115 124//124 125//125
f 115//115 125//125 116//116
f 116//116 125//125 117//117
f 117//117 125//125 118//118
# 246 faces, 0 coords texture

# End of File
