####
#
# OBJ File Generated by Meshlab
#
####
# Object male-connector-minimal_collision_2.obj
#
# Vertices: 123
# Faces: 242
#
####
vn 0.1044761 0.6764250 0.7290637
v -0.0026461 -0.0003806 0.0087098
vn 0.4897303 0.6294791 0.6032581
v -0.0024789 -0.0003806 0.0086609
vn -0.1123454 0.6743339 0.7298303
v -0.0057818 -0.0003806 0.0087098
vn 0.1208592 -0.1372292 0.9831384
v -0.0026461 -0.0088017 0.0087077
vn 0.6362542 -0.1010735 0.7648299
v -0.0024793 -0.0088017 0.0086598
vn 0.6307706 0.7039249 0.3265246
v -0.0024028 -0.0003806 0.0085187
vn -0.5223307 0.6246389 0.5805144
v -0.0059369 -0.0003806 0.0086609
vn -0.6686386 -0.0918347 0.7378950
v -0.0059369 -0.0088017 0.0086598
vn -0.1296646 -0.1359900 0.9821883
v -0.0057818 -0.0088017 0.0087077
vn 0.0781743 -0.6903924 0.7191989
v -0.0026461 -0.0089504 0.0086598
vn 0.5205356 -0.5922388 0.6150576
v -0.0025023 -0.0089335 0.0086439
vn 0.9543526 -0.2038275 0.2183246
v -0.0024049 -0.0088017 0.0085138
vn 0.9650439 -0.0065907 0.2620055
v -0.0024013 -0.0086058 0.0085138
vn 0.7234285 0.6636828 0.1902010
v -0.0024003 -0.0003806 0.0085138
vn -0.7226307 0.6694940 0.1719959
v -0.0060010 -0.0003806 0.0085138
vn -0.9753531 -0.0038920 0.2206158
v -0.0060010 -0.0086058 0.0085138
vn -0.9674894 -0.1706194 0.1866906
v -0.0059989 -0.0088017 0.0085138
vn -0.5505350 -0.5784143 0.6019536
v -0.0059178 -0.0089335 0.0086439
vn -0.0824621 -0.6901894 0.7189149
v -0.0057818 -0.0089504 0.0086598
vn 0.1299740 -0.9777689 0.1645440
v -0.0026461 -0.0090044 0.0085138
vn 0.6497195 -0.7508937 0.1184197
v -0.0024782 -0.0089521 0.0085138
vn 0.9687482 -0.2477311 0.0125050
v -0.0023989 -0.0088017 0.0083177
vn 0.9996784 -0.0145795 0.0207533
v -0.0023925 -0.0086058 0.0083177
vn 0.7125480 0.7013928 0.0179861
v -0.0023904 -0.0003806 0.0083177
vn -0.7084702 0.7049581 0.0332293
v -0.0060013 -0.0003806 0.0085074
vn -0.9998325 -0.0088399 0.0160270
v -0.0060077 -0.0086058 0.0083177
vn -0.7111517 0.7029138 0.0132519
v -0.0060084 -0.0003806 0.0083177
vn -0.9785113 -0.2059273 0.0104759
v -0.0060038 -0.0088017 0.0083177
vn -0.6820627 -0.7229630 0.1100684
v -0.0059383 -0.0089521 0.0085138
vn -0.1390568 -0.9767308 0.1632798
v -0.0057818 -0.0090044 0.0085138
vn 0.1530095 -0.9881947 0.0077042
v -0.0026461 -0.0090078 0.0083177
vn 0.6465484 -0.7628523 0.0056223
v -0.0024768 -0.0089538 0.0083177
vn 0.9671736 -0.2368574 -0.0920533
v -0.0023989 -0.0088017 0.0063583
vn 0.9935876 -0.0142972 -0.1121573
v -0.0023925 -0.0086058 0.0063583
vn 0.7073969 0.7068162 -0.0006396
v -0.0023904 -0.0003806 0.0065543
vn -0.9934784 -0.0085997 -0.1136962
v -0.0060077 -0.0086058 0.0063583
vn -0.7264299 0.6820690 -0.0841514
v -0.0060084 -0.0003806 0.0063583
vn -0.9759342 -0.1955115 -0.0965799
v -0.0060038 -0.0088017 0.0063583
vn -0.6820697 -0.7312658 0.0055970
v -0.0059397 -0.0089538 0.0083177
vn -0.1632013 -0.9865628 0.0076838
v -0.0057818 -0.0090078 0.0083177
vn 0.1608342 -0.9867362 -0.0220001
v -0.0026461 -0.0090078 0.0063583
vn 0.6518191 -0.7567177 -0.0501028
v -0.0024768 -0.0089538 0.0063583
vn 0.9297491 -0.1625216 -0.3303837
v -0.0024414 -0.0088017 0.0061622
vn 0.6736784 -0.7079097 -0.2121823
v -0.0024963 -0.0089419 0.0061622
vn 0.9281059 -0.0055711 -0.3722747
v -0.0024382 -0.0086058 0.0061622
vn 0.7263234 0.6820025 -0.0855980
v -0.0023907 -0.0003806 0.0063583
vn -0.9341956 -0.0030311 -0.3567483
v -0.0059617 -0.0086058 0.0061622
vn -0.9383250 -0.1243496 -0.3226198
v -0.0059599 -0.0088017 0.0061622
vn -0.6863351 0.6777059 -0.2639297
v -0.0059624 -0.0003806 0.0061622
vn -0.7056507 -0.6694497 -0.2321515
v -0.0059188 -0.0089360 0.0061622
vn -0.6853676 -0.7255000 -0.0626174
v -0.0059397 -0.0089538 0.0063583
vn -0.1743217 -0.9841444 -0.0327373
v -0.0057818 -0.0090078 0.0063583
vn 0.0221214 -0.9890539 -0.1458870
v -0.0036260 -0.0090078 0.0053780
vn 0.2191079 -0.9661264 -0.1363510
v -0.0026461 -0.0089960 0.0061622
vn 0.7912152 -0.0652906 -0.6080424
v -0.0025161 -0.0088017 0.0060318
vn 0.6775516 -0.5607681 -0.4758812
v -0.0025267 -0.0089200 0.0060428
vn 0.6754760 0.6781142 -0.2896438
v -0.0024375 -0.0003806 0.0061622
vn 0.6889241 0.7028457 -0.1771766
v -0.0024357 -0.0003806 0.0061686
vn -0.8021259 -0.0391456 -0.5958706
v -0.0058979 -0.0088017 0.0060460
vn -0.7018441 -0.5201636 -0.4866670
v -0.0058919 -0.0089124 0.0060520
vn -0.5961261 0.6824800 -0.4229123
v -0.0058979 -0.0003806 0.0060453
vn -0.2459613 -0.9549161 -0.1662479
v -0.0057818 -0.0089901 0.0061622
vn -0.0449867 -0.9979758 -0.0449510
v -0.0055859 -0.0090078 0.0061622
vn -0.0330354 -0.9882326 -0.1493491
v -0.0048018 -0.0090078 0.0053780
vn 0.0634663 -0.7874011 -0.6131652
v -0.0036260 -0.0089538 0.0051891
vn 0.1383554 -0.9682723 -0.2081025
v -0.0034302 -0.0089960 0.0053780
vn 0.3292528 -0.8900068 -0.3154051
v -0.0026528 -0.0089461 0.0059729
vn 0.7058939 -0.0642317 -0.7053993
v -0.0026138 -0.0088017 0.0059339
vn 0.5015150 0.7066491 -0.4991290
v -0.0026099 -0.0003806 0.0059364
vn 0.5750757 0.6820906 -0.4517082
v -0.0025161 -0.0003806 0.0060311
vn 0.6057137 0.7058585 -0.3672531
v -0.0025133 -0.0003806 0.0060357
vn 0.5995373 -0.5303960 -0.5993623
v -0.0027226 -0.0089200 0.0058467
vn -0.7067934 -0.0384998 -0.7063716
v -0.0057021 -0.0088017 0.0058499
vn -0.5186778 0.7014192 -0.4888602
v -0.0058947 -0.0003806 0.0060417
vn -0.5014293 0.7065945 -0.4992923
v -0.0058009 -0.0003806 0.0059471
vn -0.6147937 -0.4945498 -0.6143690
v -0.0056961 -0.0089124 0.0058559
vn -0.3522737 -0.8715862 -0.3409411
v -0.0057694 -0.0089369 0.0059786
vn -0.1891772 -0.9635771 -0.1890269
v -0.0055859 -0.0089901 0.0059662
vn -0.1889369 -0.9636263 -0.1890166
v -0.0051939 -0.0089901 0.0055741
vn -0.1696850 -0.9589705 -0.2271178
v -0.0049977 -0.0089901 0.0053780
vn -0.0842239 -0.7846315 -0.6142147
v -0.0048018 -0.0089538 0.0051891
vn 0.1282855 -0.2608050 -0.9568300
v -0.0036260 -0.0088017 0.0050951
vn 0.2504384 -0.7249891 -0.6416163
v -0.0034302 -0.0089419 0.0052185
vn 0.3169149 -0.8900660 -0.3276393
v -0.0032411 -0.0089461 0.0053848
vn 0.3230823 -0.8895173 -0.3230741
v -0.0030448 -0.0089461 0.0055808
vn 0.7056596 -0.0640164 -0.7056531
v -0.0030059 -0.0088017 0.0055418
vn 0.4992121 0.7065138 -0.5016229
v -0.0032010 -0.0003806 0.0053451
vn 0.5002069 0.7070090 -0.4999314
v -0.0028058 -0.0003806 0.0057404
vn 0.5992262 -0.5306377 -0.5994595
v -0.0031146 -0.0089200 0.0054546
vn -0.7063643 -0.0395656 -0.7067419
v -0.0053100 -0.0088017 0.0054578
vn -0.5000749 0.7070526 -0.5000017
v -0.0057977 -0.0003806 0.0059439
vn -0.6148200 -0.4933335 -0.6153197
v -0.0054999 -0.0089124 0.0056599
vn -0.3486926 -0.8698997 -0.3488383
v -0.0053777 -0.0089369 0.0055865
vn -0.3450322 -0.8701609 -0.3518138
v -0.0051815 -0.0089369 0.0053904
vn -0.2975095 -0.7034909 -0.6454368
v -0.0049977 -0.0089360 0.0052256
vn -0.1571634 -0.2562257 -0.9537547
v -0.0048018 -0.0088017 0.0050955
vn -0.0006486 -0.2800220 -0.9599934
v -0.0046060 -0.0088017 0.0050951
vn 0.1511133 -0.0064646 -0.9884953
v -0.0036260 -0.0086058 0.0050923
vn 0.4086284 -0.1738257 -0.8959952
v -0.0034302 -0.0088017 0.0051554
vn 0.5065199 -0.5596814 -0.6558921
v -0.0033108 -0.0089200 0.0052586
vn 0.6446995 -0.0645321 -0.7617074
v -0.0032998 -0.0088017 0.0052479
vn 0.4679201 0.6900800 -0.5521236
v -0.0032991 -0.0003806 0.0052479
vn -0.6654013 -0.0400195 -0.7454123
v -0.0051142 -0.0088017 0.0052621
vn -0.5419359 -0.5181048 -0.6617197
v -0.0051078 -0.0089124 0.0052681
vn -0.4999914 0.7070078 -0.5001485
v -0.0054057 -0.0003806 0.0055518
vn -0.4996733 0.7069501 -0.5005479
v -0.0052095 -0.0003806 0.0053557
vn -0.4604989 -0.1554713 -0.8739390
v -0.0049977 -0.0088017 0.0051696
vn -0.1838872 -0.0055483 -0.9829317
v -0.0048018 -0.0086058 0.0050930
vn -0.0015829 -0.0072758 -0.9999723
v -0.0046060 -0.0086058 0.0050923
vn 0.0020224 0.7062957 -0.7079141
v -0.0038222 -0.0003806 0.0050880
vn 0.1063600 0.6774914 -0.7278002
v -0.0036395 -0.0003806 0.0050891
vn 0.2642277 0.0005007 -0.9644602
v -0.0036260 -0.0005706 0.0050923
vn 0.3305303 0.6725247 -0.6621633
v -0.0034302 -0.0003806 0.0051533
vn 0.4474362 -0.0024527 -0.8943125
v -0.0034302 -0.0086058 0.0051540
vn -0.4982580 -0.0017921 -0.8670270
v -0.0049977 -0.0086058 0.0051685
vn -0.4813025 0.6961558 -0.5326491
v -0.0051149 -0.0003806 0.0052614
vn -0.4452146 0.7056959 -0.5511600
v -0.0051110 -0.0003806 0.0052582
vn -0.2536158 0.7059727 -0.6612727
v -0.0049913 -0.0003806 0.0051653
vn -0.2867590 0.0015404 -0.9580016
v -0.0048018 -0.0005706 0.0050930
vn -0.1315052 0.6722972 -0.7285073
v -0.0047873 -0.0003806 0.0050898
vn -0.0034241 0.7058525 -0.7083506
v -0.0046060 -0.0003806 0.0050880
vn 0.2042921 0.7071229 -0.6769357
v -0.0036179 -0.0003806 0.0050955
vn -0.3685662 0.6748701 -0.6393039
v -0.0049977 -0.0003806 0.0051678
# 123 vertices, 0 vertices normals

f 1//1 2//2 6//6
f 1//1 6//6 14//14
f 1//1 14//14 24//24
f 1//1 24//24 35//35
f 1//1 35//35 46//46
f 1//1 46//46 58//58
f 1//1 58//58 57//57
f 1//1 57//57 71//71
f 1//1 71//71 70//70
f 1//1 70//70 69//69
f 1//1 69//69 88//88
f 1//1 88//88 87//87
f 1//1 87//87 102//102
f 1//1 102//102 113//113
f 1//1 113//113 122//122
f 1//1 122//122 111//111
f 1//1 111//111 110//110
f 1//1 110//110 121//121
f 1//1 121//121 120//120
f 1//1 120//120 118//118
f 1//1 118//118 123//123
f 1//1 123//123 117//117
f 1//1 117//117 116//116
f 1//1 116//116 106//106
f 1//1 106//106 105//105
f 1//1 105//105 91//91
f 1//1 91//91 75//75
f 1//1 75//75 74//74
f 1//1 74//74 61//61
f 1//1 61//61 49//49
f 1//1 49//49 37//37
f 1//1 37//37 27//27
f 1//1 27//27 25//25
f 1//1 25//25 15//15
f 1//1 15//15 7//7
f 1//1 7//7 3//3
f 1//1 3//3 9//9
f 1//1 9//9 4//4
f 1//1 4//4 5//5
f 1//1 5//5 2//2
f 2//2 5//5 6//6
f 3//3 7//7 8//8
f 3//3 8//8 9//9
f 4//4 9//9 19//19
f 4//4 19//19 10//10
f 4//4 10//10 11//11
f 4//4 11//11 5//5
f 5//5 11//11 12//12
f 5//5 12//12 13//13
f 5//5 13//13 6//6
f 6//6 13//13 14//14
f 7//7 15//15 16//16
f 7//7 16//16 8//8
f 8//8 16//16 17//17
f 8//8 17//17 18//18
f 8//8 18//18 9//9
f 9//9 18//18 19//19
f 10//10 19//19 30//30
f 10//10 30//30 20//20
f 10//10 20//20 11//11
f 11//11 20//20 21//21
f 11//11 21//21 12//12
f 12//12 21//21 22//22
f 12//12 22//22 23//23
f 12//12 23//23 13//13
f 13//13 23//23 24//24
f 13//13 24//24 14//14
f 15//15 25//25 16//16
f 16//16 26//26 17//17
f 16//16 25//25 27//27
f 16//16 27//27 26//26
f 17//17 28//28 29//29
f 17//17 29//29 18//18
f 17//17 26//26 28//28
f 18//18 29//29 30//30
f 18//18 30//30 19//19
f 20//20 30//30 40//40
f 20//20 40//40 31//31
f 20//20 31//31 21//21
f 21//21 31//31 32//32
f 21//21 32//32 22//22
f 22//22 32//32 42//42
f 22//22 42//42 33//33
f 22//22 33//33 34//34
f 22//22 34//34 23//23
f 23//23 34//34 35//35
f 23//23 35//35 24//24
f 26//26 36//36 38//38
f 26//26 38//38 28//28
f 26//26 27//27 37//37
f 26//26 37//37 36//36
f 28//28 38//38 51//51
f 28//28 51//51 39//39
f 28//28 39//39 29//29
f 29//29 39//39 40//40
f 29//29 40//40 30//30
f 31//31 40//40 52//52
f 31//31 52//52 63//63
f 31//31 63//63 64//64
f 31//31 64//64 53//53
f 31//31 53//53 41//41
f 31//31 41//41 42//42
f 31//31 42//42 32//32
f 33//33 43//43 34//34
f 33//33 42//42 44//44
f 33//33 44//44 43//43
f 34//34 43//43 45//45
f 34//34 45//45 46//46
f 34//34 46//46 35//35
f 36//36 47//47 48//48
f 36//36 48//48 38//38
f 36//36 37//37 49//49
f 36//36 49//49 47//47
f 38//38 48//48 50//50
f 38//38 50//50 51//51
f 39//39 51//51 52//52
f 39//39 52//52 40//40
f 41//41 53//53 54//54
f 41//41 54//54 42//42
f 42//42 54//54 44//44
f 43//43 55//55 45//45
f 43//43 44//44 56//56
f 43//43 56//56 55//55
f 44//44 54//54 56//56
f 45//45 55//55 57//57
f 45//45 57//57 58//58
f 45//45 58//58 46//46
f 47//47 59//59 48//48
f 47//47 49//49 59//59
f 48//48 59//59 60//60
f 48//48 60//60 50//50
f 49//49 61//61 59//59
f 50//50 62//62 51//51
f 50//50 60//60 62//62
f 51//51 62//62 52//52
f 52//52 62//62 78//78
f 52//52 78//78 63//63
f 53//53 64//64 81//81
f 53//53 81//81 65//65
f 53//53 65//65 66//66
f 53//53 66//66 54//54
f 54//54 66//66 85//85
f 54//54 85//85 67//67
f 54//54 67//67 56//56
f 55//55 56//56 72//72
f 55//55 72//72 68//68
f 55//55 68//68 88//88
f 55//55 88//88 69//69
f 55//55 69//69 70//70
f 55//55 70//70 71//71
f 55//55 71//71 57//57
f 56//56 67//67 72//72
f 59//59 73//73 76//76
f 59//59 76//76 60//60
f 59//59 61//61 74//74
f 59//59 74//74 75//75
f 59//59 75//75 91//91
f 59//59 91//91 73//73
f 60//60 76//76 93//93
f 60//60 93//93 77//77
f 60//60 77//77 62//62
f 62//62 77//77 93//93
f 62//62 93//93 78//78
f 63//63 78//78 79//79
f 63//63 79//79 64//64
f 64//64 79//79 80//80
f 64//64 80//80 81//81
f 65//65 82//82 83//83
f 65//65 83//83 66//66
f 65//65 81//81 97//97
f 65//65 97//97 82//82
f 66//66 83//83 84//84
f 66//66 84//84 85//85
f 67//67 85//85 89//89
f 67//67 89//89 72//72
f 68//68 72//72 89//89
f 68//68 89//89 86//86
f 68//68 86//86 87//87
f 68//68 87//87 88//88
f 73//73 90//90 76//76
f 73//73 91//91 105//105
f 73//73 105//105 90//90
f 76//76 92//92 94//94
f 76//76 94//94 93//93
f 76//76 90//90 92//92
f 78//78 93//93 79//79
f 79//79 93//93 94//94
f 79//79 94//94 80//80
f 80//80 94//94 95//95
f 80//80 95//95 81//81
f 81//81 95//95 96//96
f 81//81 96//96 97//97
f 82//82 97//97 109//109
f 82//82 109//109 98//98
f 82//82 98//98 99//99
f 82//82 99//99 83//83
f 83//83 100//100 84//84
f 83//83 99//99 100//100
f 84//84 100//100 89//89
f 84//84 89//89 85//85
f 86//86 89//89 101//101
f 86//86 101//101 87//87
f 87//87 101//101 102//102
f 89//89 100//100 101//101
f 90//90 103//103 104//104
f 90//90 104//104 92//92
f 90//90 105//105 106//106
f 90//90 106//106 103//103
f 92//92 104//104 94//94
f 94//94 104//104 95//95
f 95//95 104//104 107//107
f 95//95 107//107 96//96
f 96//96 107//107 108//108
f 96//96 108//108 109//109
f 96//96 109//109 97//97
f 98//98 110//110 111//111
f 98//98 111//111 112//112
f 98//98 112//112 113//113
f 98//98 113//113 114//114
f 98//98 114//114 99//99
f 98//98 109//109 121//121
f 98//98 121//121 110//110
f 99//99 114//114 101//101
f 99//99 101//101 100//100
f 101//101 114//114 113//113
f 101//101 113//113 102//102
f 103//103 115//115 107//107
f 103//103 107//107 104//104
f 103//103 106//106 116//116
f 103//103 116//116 117//117
f 103//103 117//117 115//115
f 107//107 115//115 108//108
f 108//108 115//115 118//118
f 108//108 118//118 119//119
f 108//108 119//119 120//120
f 108//108 120//120 121//121
f 108//108 121//121 109//109
f 111//111 122//122 112//112
f 112//112 122//122 113//113
f 115//115 117//117 123//123
f 115//115 123//123 118//118
f 118//118 120//120 119//119
# 242 faces, 0 coords texture

# End of File
