# OBJ generated by ONSHAPE BY PTC INC, 1.199 Units = meters
mtllib male-connector-minimal.mtl
g 0039012060
v -0.0069 0.0107 -0.001 
v -0.0069 0.0107 0.0096 
v 0.0069 0.0107 0.0096 
v 0.0069 0.0107 -0.001 
v -0.0069 0.0097 -0.001 
v 0.0069 0.0097 -0.001 
v -0.0021 0 0.0096 
v 0.0021 0 0.0096 
v -0.0064 0 0.0096 
v -0.0069 0 0.0096 
v 0.0069 0 0.0096 
v 0.0069 0.0097 -4.22503e-19 
v 0.0069 0 0.0048 
v 0.0069 0 0.0027 
v 0.0069 0 0.0091 
v 0.0069 0 -4.22503e-19 
v -0.0069 0 0.0048 
v -0.0069 0 0.0091 
v -0.0069 0.0097 -2.1684e-19 
v -0.0069 0 0.0027 
v -0.0069 0 0 
v -0.0021 0 -4.22503e-19 
v -0.0064 0 -4.22503e-19 
v 0.0021 0 -4.22503e-19 
v -0.0035 -5.78241e-19 0.0052 
v -0.0049 0 0.0052 
v -0.0025 0 0.0062 
v -0.0025 0 0.0086 
v -0.0059 0 0.0086 
v -0.0059 0 0.0062 
v 0.0017 0 0.0086 
v -0.0017 0 0.0086 
v -0.0017 0 0.0052 
v 0.0017 0 0.0052 
v 0.0059 0 0.0052 
v 0.0059 0 0.0086 
v 0.0025 0 0.0086 
v 0.0025 0 0.0052 
v 0.0017 0 0.0044 
v -0.0017 0 0.0044 
v -0.0017 0 0.0027 
v 0.0007 -5.78241e-19 0.001 
v -0.0017 0 0.002 
v 0.0017 0 0.002 
v 0.0017 0 0.0027 
v -0.0007 0 0.001 
v -0.0025 0 0.0044 
v -0.0059 0 0.0044 
v -0.0059 0 0.0027 
v -0.0025 0 0.001 
v -0.0059 0 0.001 
v -0.0025 0 0.0027 
v 0.0059 0 0.0044 
v 0.0025 0 0.0044 
v 0.0025 0 0.0027 
v 0.0049 -5.78241e-19 0.001 
v 0.0035 0 0.001 
v 0.0059 0 0.002 
v 0.0059 0 0.0027 
v 0.0025 0 0.002 
v -0.0064 0 0.0091 
v -0.0064 0 0.0048 
v -0.0064 0 0.0027 
v -0.0021 0 0.0048 
v -0.0021 0 0.0091 
v 0.0021 0 0.0048 
v 0.0021 0 0.0091 
v 0.0021 0 0.0027 
v -0.0021 0 0.0027 
v 0.0059 -0.0089 0.0086 
v 0.0025 -0.0089 0.0086 
v 0.0025 -0.0089 0.0052 
v 0.0059 -0.0089 0.0052 
v 0.0059 -0.0089 0.0044 
v 0.0025 -0.0089 0.0044 
v 0.0035 -0.0089 0.001 
v 0.0049 -0.0089 0.001 
v 0.0025 -0.0089 0.002 
v 0.0059 -0.0089 0.002 
v 0.0017 -0.0089 0.0086 
v -0.0017 -0.0089 0.0086 
v -0.0017 -0.0089 0.0052 
v 0.0017 -0.0089 0.0052 
v 0.0017 -0.0089 0.0044 
v -0.0017 -0.0089 0.0044 
v -0.0007 -0.0089 0.001 
v 0.0007 -0.0089 0.001 
v -0.0017 -0.0089 0.002 
v 0.0017 -0.0089 0.002 
v -0.0025 -0.0089 0.0086 
v -0.0059 -0.0089 0.0086 
v -0.0049 -0.0089 0.0052 
v -0.0035 -0.0089 0.0052 
v -0.0059 -0.0089 0.0062 
v -0.0025 -0.0089 0.0062 
v -0.0025 -0.0089 0.0044 
v -0.0059 -0.0089 0.0044 
v -0.0025 -0.0089 0.001 
v -0.0059 -0.0089 0.001 
vn 0 1 0 
vn -3.77114e-16 0 -1 
vn 0 0 1 
vn 1 0 0 
vn -1 0 0 
vn 0 -1 0 
vn 0 0 -1 
vn 0 0 1 
vn 0 -1 0 
vn 1 0 3.8266e-16 
vn 0 0 -1 
vn -1 0 2.55106e-16 
vn -2.55106e-16 0 1 
vn 0 -1 0 
vn 1 0 3.8266e-16 
vn 0.707107 0 -0.707107 
vn 3.18883e-16 0 -1 
vn -0.707107 0 -0.707107 
vn -1 0 2.55106e-16 
vn 0 0 1 
vn 0 -1 0 
vn 1 0 3.8266e-16 
vn 0 0 -1 
vn -1 0 2.55106e-16 
vn -2.55106e-16 0 1 
vn 0 -1 0 
vn 1 0 3.8266e-16 
vn 0.707107 0 -0.707107 
vn 3.18883e-16 0 -1 
vn -0.707107 0 -0.707107 
vn -1 0 2.55106e-16 
vn 0 0 1 
vn 0 -1 0 
vn 1 0 2.55106e-16 
vn 0.707107 0 -0.707107 
vn 0 0 -1 
vn -0.707107 0 -0.707107 
vn -1 0 -2.55106e-16 
vn -2.55106e-16 0 1 
vn 1 0 2.55106e-16 
vn 3.18883e-16 0 -1 
vn -1 0 -2.55106e-16 
vn 0 -1 0 
usemtl 0.596078_0.666667_0.686275_0.000000_0.000000
o mesh0
f 1//1 2//1 3//1 
f 3//1 4//1 1//1 
o mesh1
f 5//2 1//2 4//2 
f 4//2 6//2 5//2 
o mesh2
f 3//3 2//3 7//3 
f 7//3 8//3 3//3 
f 2//3 9//3 7//3 
f 2//3 10//3 9//3 
f 8//3 11//3 3//3 
o mesh3
f 12//4 3//4 13//4 
f 13//4 14//4 12//4 
f 3//4 15//4 13//4 
f 4//4 3//4 12//4 
f 3//4 11//4 15//4 
f 14//4 16//4 12//4 
f 12//4 6//4 4//4 
o mesh4
f 2//5 17//5 18//5 
f 19//5 20//5 17//5 
f 17//5 2//5 19//5 
f 19//5 21//5 20//5 
f 1//5 5//5 19//5 
f 19//5 2//5 1//5 
f 18//5 10//5 2//5 
o mesh5
f 6//6 12//6 19//6 
f 19//6 5//6 6//6 
o mesh6
f 19//7 22//7 23//7 
f 19//7 12//7 24//7 
f 24//7 22//7 19//7 
f 12//7 16//7 24//7 
f 23//7 21//7 19//7 
o mesh7
f 9//6 10//6 18//6 
f 61//6 18//6 17//6 
f 62//6 17//6 20//6 
f 63//6 20//6 21//6 
f 7//6 9//6 61//6 
f 64//6 25//6 26//6 
f 64//6 27//6 25//6 
f 65//6 28//6 27//6 
f 27//6 64//6 65//6 
f 65//6 61//6 29//6 
f 61//6 62//6 30//6 
f 29//6 28//6 65//6 
f 62//6 26//6 30//6 
f 30//6 29//6 61//6 
f 8//6 7//6 65//6 
f 66//6 67//6 31//6 
f 67//6 65//6 32//6 
f 32//6 31//6 67//6 
f 64//6 33//6 32//6 
f 32//6 65//6 64//6 
f 64//6 66//6 34//6 
f 34//6 33//6 64//6 
f 11//6 8//6 67//6 
f 66//6 13//6 35//6 
f 13//6 15//6 36//6 
f 36//6 35//6 13//6 
f 67//6 37//6 36//6 
f 36//6 15//6 67//6 
f 66//6 38//6 37//6 
f 37//6 67//6 66//6 
f 68//6 66//6 39//6 
f 66//6 64//6 40//6 
f 40//6 39//6 66//6 
f 69//6 41//6 40//6 
f 40//6 64//6 69//6 
f 22//6 24//6 42//6 
f 69//6 22//6 43//6 
f 24//6 44//6 42//6 
f 68//6 45//6 44//6 
f 22//6 46//6 43//6 
f 44//6 24//6 68//6 
f 42//6 46//6 22//6 
f 69//6 64//6 47//6 
f 64//6 62//6 48//6 
f 48//6 47//6 64//6 
f 63//6 49//6 48//6 
f 48//6 62//6 63//6 
f 22//6 50//6 51//6 
f 69//6 52//6 50//6 
f 63//6 23//6 51//6 
f 50//6 22//6 69//6 
f 51//6 23//6 22//6 
f 14//6 13//6 53//6 
f 66//6 54//6 53//6 
f 53//6 13//6 66//6 
f 68//6 55//6 54//6 
f 54//6 66//6 68//6 
f 24//6 16//6 56//6 
f 56//6 57//6 24//6 
f 16//6 58//6 56//6 
f 14//6 59//6 58//6 
f 68//6 24//6 60//6 
f 58//6 16//6 14//6 
f 57//6 60//6 24//6 
f 60//6 55//6 68//6 
f 53//6 59//6 14//6 
f 51//6 49//6 63//6 
f 47//6 52//6 69//6 
f 43//6 41//6 69//6 
f 39//6 45//6 68//6 
f 35//6 38//6 66//6 
f 67//6 15//6 11//6 
f 31//6 34//6 66//6 
f 65//6 67//6 8//6 
f 26//6 62//6 64//6 
f 61//6 65//6 7//6 
f 21//6 23//6 63//6 
f 20//6 63//6 62//6 
f 17//6 62//6 61//6 
f 18//6 61//6 9//6 
o mesh8
f 70//8 36//8 37//8 
f 37//8 71//8 70//8 
o mesh9
f 70//9 71//9 72//9 
f 72//9 73//9 70//9 
o mesh10
f 73//10 35//10 36//10 
f 36//10 70//10 73//10 
o mesh11
f 72//11 38//11 35//11 
f 35//11 73//11 72//11 
o mesh12
f 71//12 37//12 38//12 
f 38//12 72//12 71//12 
o mesh13
f 74//13 53//13 54//13 
f 54//13 75//13 74//13 
o mesh14
f 74//14 76//14 77//14 
f 74//14 78//14 76//14 
f 74//14 75//14 78//14 
f 77//14 79//14 74//14 
o mesh15
f 74//15 79//15 59//15 
f 79//15 58//15 59//15 
f 59//15 53//15 74//15 
o mesh16
f 79//16 77//16 56//16 
f 56//16 58//16 79//16 
o mesh17
f 76//17 57//17 56//17 
f 56//17 77//17 76//17 
o mesh18
f 78//18 60//18 57//18 
f 57//18 76//18 78//18 
o mesh19
f 75//19 54//19 55//19 
f 55//19 78//19 75//19 
f 55//19 60//19 78//19 
o mesh20
f 80//20 31//20 32//20 
f 32//20 81//20 80//20 
o mesh21
f 80//21 81//21 82//21 
f 82//21 83//21 80//21 
o mesh22
f 83//22 34//22 31//22 
f 31//22 80//22 83//22 
o mesh23
f 82//23 33//23 34//23 
f 34//23 83//23 82//23 
o mesh24
f 81//24 32//24 33//24 
f 33//24 82//24 81//24 
o mesh25
f 84//25 39//25 40//25 
f 40//25 85//25 84//25 
o mesh26
f 84//26 86//26 87//26 
f 84//26 88//26 86//26 
f 84//26 85//26 88//26 
f 87//26 89//26 84//26 
o mesh27
f 84//27 89//27 45//27 
f 89//27 44//27 45//27 
f 45//27 39//27 84//27 
o mesh28
f 89//28 87//28 42//28 
f 42//28 44//28 89//28 
o mesh29
f 86//29 46//29 42//29 
f 42//29 87//29 86//29 
o mesh30
f 88//30 43//30 46//30 
f 46//30 86//30 88//30 
o mesh31
f 85//31 40//31 41//31 
f 41//31 88//31 85//31 
f 41//31 43//31 88//31 
o mesh32
f 90//32 28//32 29//32 
f 29//32 91//32 90//32 
o mesh33
f 90//33 92//33 93//33 
f 90//33 94//33 92//33 
f 90//33 91//33 94//33 
f 93//33 95//33 90//33 
o mesh34
f 95//34 27//34 28//34 
f 28//34 90//34 95//34 
o mesh35
f 95//35 93//35 25//35 
f 25//35 27//35 95//35 
o mesh36
f 92//36 26//36 25//36 
f 25//36 93//36 92//36 
o mesh37
f 94//37 30//37 26//37 
f 26//37 92//37 94//37 
o mesh38
f 91//38 29//38 30//38 
f 30//38 94//38 91//38 
o mesh39
f 96//39 47//39 48//39 
f 48//39 97//39 96//39 
o mesh40
f 98//40 50//40 52//40 
f 52//40 96//40 98//40 
f 52//40 47//40 96//40 
o mesh41
f 99//41 51//41 50//41 
f 50//41 98//41 99//41 
o mesh42
f 97//42 48//42 49//42 
f 49//42 99//42 97//42 
f 49//42 51//42 99//42 
o mesh43
f 96//43 97//43 99//43 
f 99//43 98//43 96//43 
