# OBJ generated by ONSHAPE BY PTC INC, 1.199 Units = meters
mtllib female-connector-truncated.mtl
g 0039012061
v 0.0019 0.0061 0 
v 0.0019 0.0061 -0.00358 
v -0.0019 0.0061 -0.00358 
v -0.0019 0.0061 0 
v 0.0019 0.01 0 
v 0.0019 0.01 -0.00358 
v -0.0019 0.01 0 
v -0.0019 0.01 -0.00358 
v -0.0069 0.0106 0 
v -0.0069 0.0103 0 
v -0.0069 0.00595 0 
v -0.0061 0.0061 0 
v -0.0061 0.01 0 
v -0.0023 0.0061 0 
v -0.0023 0.01 0 
v -0.0021 0.0106 0 
v 0.0021 0.0106 0 
v 0.0053 0.0061 0 
v 0.0031 0.0061 0 
v 0.0023 0.0069 0 
v 0.0061 0.0069 0 
v 0.0061 0.01 0 
v 0.0023 0.01 0 
v 0.0065 0.0106 0 
v 0.0069 0.0103 0 
v 0.0069 0.00595 0 
v 0.0069 0.00385 0 
v 0.0065 0.001 0 
v 0.0069 0.001 0 
v 0.0021 0.001 0 
v 0.0023 0.0019 0 
v 0.0061 0.0019 0 
v 0.0061 0.00385 0 
v 0.0061 0.0058 0 
v 0.0023 0.0058 0 
v 0.0023 0.00385 0 
v -0.0021 0.001 0 
v -0.0019 0.0027 0 
v -0.0011 0.0019 0 
v 0.0011 0.0019 0 
v 0.0019 0.0027 0 
v 0.0019 0.00385 0 
v 0.0019 0.0058 0 
v -0.0019 0.0058 0 
v -0.0019 0.00385 0 
v -0.0023 0.0058 0 
v -0.0061 0.0058 0 
v -0.0069 0.00385 0 
v -0.0061 0.00385 0 
v -0.0069 0.0019 0 
v -0.0061 0.0027 0 
v -0.006 0.001 0 
v -0.0053 0.0019 0 
v -0.0031 0.0019 0 
v -0.0023 0.0027 0 
v -0.0023 0.00385 0 
v 0.0069 0.0106 0 
v -0.0021 0.0103 0 
v -0.0021 0.00595 0 
v 0.0021 0.0103 0 
v 0.0021 0.00595 0 
v 0.0065 0.0103 0 
v 0.0065 0.00595 0 
v 0.0065 0.00385 0 
v 0.0021 0.00385 0 
v -0.0021 0.00385 0 
v -0.0069 0.0103 -0.00358 
v -0.0069 0.0106 -0.00358 
v -0.0065 0.0106 -0.00358 
v -0.0021 0.0106 -0.00358 
v 0.0021 0.0106 -0.00358 
v 0.0069 0.0106 -0.00358 
v -0.0069 0.00595 -0.00358 
v -0.0061 0.01 -0.00358 
v -0.0023 0.01 -0.00358 
v -0.0023 0.0061 -0.00358 
v -0.0061 0.0061 -0.00358 
v 0.0031 0.0061 -0.00358 
v 0.0053 0.0061 -0.00358 
v 0.0069 0.00595 -0.00358 
v 0.0023 0.0069 -0.00358 
v 0.0023 0.01 -0.00358 
v 0.0069 0.0103 -0.00358 
v 0.0061 0.0069 -0.00358 
v 0.0061 0.01 -0.00358 
v -0.0069 0.00385 -0.00358 
v -0.0019 0.0058 -0.00358 
v 0.0019 0.0058 -0.00358 
v 0.0019 0.00385 -0.00358 
v 0.0021 0.001 -0.00358 
v 0.0019 0.0027 -0.00358 
v 0.0011 0.0019 -0.00358 
v -0.0021 0.001 -0.00358 
v -0.0011 0.0019 -0.00358 
v -0.0019 0.00385 -0.00358 
v -0.0019 0.0027 -0.00358 
v -0.0061 0.0058 -0.00358 
v -0.0023 0.0058 -0.00358 
v -0.0023 0.00385 -0.00358 
v 0.0023 0.0058 -0.00358 
v 0.0061 0.0058 -0.00358 
v 0.0069 0.00385 -0.00358 
v 0.0061 0.00385 -0.00358 
v 0.0069 0.001 -0.00358 
v 0.0061 0.0019 -0.00358 
v 0.0023 0.0019 -0.00358 
v 0.0023 0.00385 -0.00358 
v -0.0023 0.0027 -0.00358 
v -0.0031 0.0019 -0.00358 
v -0.006 0.001 -0.00358 
v -0.0053 0.0019 -0.00358 
v -0.0065 0.0015 -0.00358 
v -0.0061 0.0027 -0.00358 
v -0.0061 0.00385 -0.00358 
v -0.0069 0.0019 -0.00358 
v -0.0065 0.0103 -0.00358 
v -0.0021 0.0103 -0.00358 
v 0.0021 0.0103 -0.00358 
v -0.0065 0.00595 -0.00358 
v -0.0021 0.00595 -0.00358 
v 0.0021 0.00595 -0.00358 
v -0.0021 0.00385 -0.00358 
v 0.0021 0.00385 -0.00358 
v -0.0065 0.00385 -0.00358 
vn 0 1 0 
vn -1 0 0 
vn 0 -1 0 
vn 1 0 0 
vn 0 0 1 
vn 0 0 -1 
vn 0 1 0 
vn -0.707107 0.707107 0 
vn -1 0 0 
vn 0 -1 0 
vn 1 0 0 
vn 0.707107 0.707107 0 
vn 0 1 0 
vn -1 0 0 
vn 0 -1 0 
vn 1 0 0 
vn 0 1 0 
vn -0.707107 0.707107 0 
vn -1 0 0 
vn 0 -1 0 
vn 1 0 0 
vn 0.707107 0.707107 0 
vn -1 0 0 
vn 0 -1 0 
vn 1 0 0 
vn 0.707107 0.707107 0 
vn 0 1 0 
vn -0.707107 0.707107 0 
vn -1 0 0 
vn 0 -1 0 
vn 0 1 0 
vn 1 0 0 
vn -0.707107 -0.707107 0 
vn 0 -1 0 
vn 1 0 0 
usemtl 0.498039_0.498039_0.498039_0.000000_0.000000
o mesh0
f 1//1 2//1 3//1 
f 3//1 4//1 1//1 
o mesh1
f 5//2 6//2 2//2 
f 2//2 1//2 5//2 
o mesh2
f 7//3 8//3 6//3 
f 6//3 5//3 7//3 
o mesh3
f 4//4 3//4 8//4 
f 8//4 7//4 4//4 
o mesh4
f 9//5 10//5 58//5 
f 11//5 12//5 13//5 
f 59//5 14//5 12//5 
f 12//5 11//5 59//5 
f 59//5 58//5 15//5 
f 58//5 10//5 13//5 
f 15//5 14//5 59//5 
f 13//5 10//5 11//5 
f 16//5 58//5 60//5 
f 59//5 4//5 7//5 
f 59//5 61//5 1//5 
f 1//5 4//5 59//5 
f 61//5 60//5 5//5 
f 60//5 58//5 7//5 
f 5//5 1//5 61//5 
f 7//5 58//5 59//5 
f 17//5 60//5 62//5 
f 61//5 63//5 18//5 
f 18//5 19//5 61//5 
f 60//5 61//5 20//5 
f 63//5 21//5 18//5 
f 19//5 20//5 61//5 
f 62//5 22//5 21//5 
f 60//5 23//5 22//5 
f 21//5 63//5 62//5 
f 20//5 23//5 60//5 
f 24//5 62//5 25//5 
f 62//5 63//5 26//5 
f 63//5 64//5 27//5 
f 64//5 28//5 29//5 
f 65//5 30//5 31//5 
f 30//5 28//5 32//5 
f 32//5 31//5 30//5 
f 64//5 33//5 32//5 
f 32//5 28//5 64//5 
f 64//5 63//5 34//5 
f 61//5 35//5 34//5 
f 34//5 63//5 61//5 
f 65//5 36//5 35//5 
f 35//5 61//5 65//5 
f 66//5 37//5 38//5 
f 37//5 39//5 38//5 
f 37//5 30//5 40//5 
f 40//5 39//5 37//5 
f 30//5 41//5 40//5 
f 65//5 42//5 41//5 
f 41//5 30//5 65//5 
f 65//5 61//5 43//5 
f 61//5 59//5 44//5 
f 44//5 43//5 61//5 
f 66//5 45//5 44//5 
f 44//5 59//5 66//5 
f 66//5 59//5 46//5 
f 59//5 11//5 47//5 
f 47//5 46//5 59//5 
f 48//5 49//5 47//5 
f 47//5 11//5 48//5 
f 48//5 50//5 51//5 
f 50//5 52//5 53//5 
f 53//5 51//5 50//5 
f 52//5 37//5 54//5 
f 54//5 53//5 52//5 
f 37//5 55//5 54//5 
f 66//5 56//5 55//5 
f 55//5 37//5 66//5 
f 51//5 49//5 48//5 
f 46//5 56//5 66//5 
f 43//5 42//5 65//5 
f 38//5 45//5 66//5 
f 34//5 33//5 64//5 
f 31//5 36//5 65//5 
f 29//5 27//5 64//5 
f 27//5 26//5 63//5 
f 26//5 25//5 62//5 
f 25//5 57//5 24//5 
f 22//5 62//5 60//5 
f 62//5 24//5 17//5 
f 7//5 5//5 60//5 
f 60//5 17//5 16//5 
f 13//5 15//5 58//5 
f 58//5 16//5 9//5 
o mesh5
f 67//6 68//6 69//6 
f 116//6 69//6 70//6 
f 117//6 70//6 71//6 
f 118//6 71//6 72//6 
f 73//6 67//6 116//6 
f 119//6 116//6 74//6 
f 117//6 75//6 74//6 
f 74//6 116//6 117//6 
f 120//6 76//6 75//6 
f 75//6 117//6 120//6 
f 120//6 119//6 77//6 
f 77//6 76//6 120//6 
f 120//6 117//6 8//6 
f 117//6 118//6 6//6 
f 6//6 8//6 117//6 
f 121//6 2//6 6//6 
f 6//6 118//6 121//6 
f 120//6 3//6 2//6 
f 2//6 121//6 120//6 
f 121//6 78//6 79//6 
f 79//6 80//6 121//6 
f 121//6 81//6 78//6 
f 118//6 82//6 81//6 
f 83//6 80//6 84//6 
f 81//6 121//6 118//6 
f 118//6 83//6 85//6 
f 79//6 84//6 80//6 
f 84//6 85//6 83//6 
f 86//6 73//6 119//6 
f 122//6 120//6 87//6 
f 120//6 121//6 88//6 
f 88//6 87//6 120//6 
f 123//6 89//6 88//6 
f 88//6 121//6 123//6 
f 123//6 90//6 91//6 
f 90//6 92//6 91//6 
f 93//6 94//6 92//6 
f 122//6 95//6 96//6 
f 92//6 90//6 93//6 
f 96//6 93//6 122//6 
f 96//6 94//6 93//6 
f 124//6 119//6 97//6 
f 120//6 98//6 97//6 
f 97//6 119//6 120//6 
f 122//6 99//6 98//6 
f 98//6 120//6 122//6 
f 123//6 121//6 100//6 
f 121//6 80//6 101//6 
f 101//6 100//6 121//6 
f 102//6 103//6 101//6 
f 101//6 80//6 102//6 
f 102//6 104//6 105//6 
f 90//6 106//6 105//6 
f 105//6 104//6 90//6 
f 123//6 107//6 106//6 
f 106//6 90//6 123//6 
f 122//6 93//6 108//6 
f 93//6 109//6 108//6 
f 110//6 111//6 109//6 
f 109//6 93//6 110//6 
f 111//6 110//6 112//6 
f 112//6 113//6 111//6 
f 124//6 114//6 113//6 
f 113//6 112//6 124//6 
f 124//6 112//6 115//6 
f 115//6 86//6 124//6 
f 108//6 99//6 122//6 
f 105//6 103//6 102//6 
f 100//6 107//6 123//6 
f 97//6 114//6 124//6 
f 91//6 89//6 123//6 
f 87//6 95//6 122//6 
f 119//6 124//6 86//6 
f 85//6 82//6 118//6 
f 8//6 3//6 120//6 
f 74//6 77//6 119//6 
f 116//6 119//6 73//6 
f 72//6 83//6 118//6 
f 71//6 118//6 117//6 
f 70//6 117//6 116//6 
f 69//6 116//6 67//6 
o mesh6
f 40//7 92//7 94//7 
f 94//7 39//7 40//7 
o mesh7
f 41//8 91//8 92//8 
f 92//8 40//8 41//8 
o mesh8
f 41//9 42//9 89//9 
f 88//9 89//9 42//9 
f 42//9 43//9 88//9 
f 89//9 91//9 41//9 
o mesh9
f 44//10 87//10 88//10 
f 88//10 43//10 44//10 
o mesh10
f 44//11 45//11 95//11 
f 96//11 95//11 45//11 
f 45//11 38//11 96//11 
f 95//11 87//11 44//11 
o mesh11
f 39//12 94//12 96//12 
f 96//12 38//12 39//12 
o mesh12
f 14//13 76//13 77//13 
f 77//13 12//13 14//13 
o mesh13
f 15//14 75//14 76//14 
f 76//14 14//14 15//14 
o mesh14
f 13//15 74//15 75//15 
f 75//15 15//15 13//15 
o mesh15
f 12//16 77//16 74//16 
f 74//16 13//16 12//16 
o mesh16
f 54//17 109//17 111//17 
f 111//17 53//17 54//17 
o mesh17
f 55//18 108//18 109//18 
f 109//18 54//18 55//18 
o mesh18
f 55//19 56//19 99//19 
f 98//19 99//19 56//19 
f 56//19 46//19 98//19 
f 99//19 108//19 55//19 
o mesh19
f 47//20 97//20 98//20 
f 98//20 46//20 47//20 
o mesh20
f 47//21 49//21 114//21 
f 113//21 114//21 49//21 
f 49//21 51//21 113//21 
f 114//21 97//21 47//21 
o mesh21
f 53//22 111//22 113//22 
f 113//22 51//22 53//22 
o mesh22
f 22//23 85//23 84//23 
f 84//23 21//23 22//23 
o mesh23
f 23//24 82//24 85//24 
f 85//24 22//24 23//24 
o mesh24
f 20//25 81//25 82//25 
f 82//25 23//25 20//25 
o mesh25
f 19//26 78//26 81//26 
f 81//26 20//26 19//26 
o mesh26
f 18//27 79//27 78//27 
f 78//27 19//27 18//27 
o mesh27
f 21//28 84//28 79//28 
f 79//28 18//28 21//28 
o mesh28
f 32//27 105//27 106//27 
f 106//27 31//27 32//27 
o mesh29
f 32//29 33//29 103//29 
f 101//29 103//29 33//29 
f 33//29 34//29 101//29 
f 103//29 105//29 32//29 
o mesh30
f 35//30 100//30 101//30 
f 101//30 34//30 35//30 
o mesh31
f 50//29 48//29 86//29 
f 73//29 86//29 48//29 
f 48//29 11//29 73//29 
f 67//29 73//29 11//29 
f 11//29 10//29 67//29 
f 68//29 67//29 10//29 
f 10//29 9//29 68//29 
f 86//29 115//29 50//29 
o mesh32
f 16//31 70//31 69//31 
f 69//31 9//31 16//31 
f 71//31 70//31 16//31 
f 71//31 17//31 24//31 
f 16//31 17//31 71//31 
f 24//31 72//31 71//31 
f 24//31 57//31 72//31 
f 69//31 68//31 9//31 
o mesh33
f 57//32 25//32 83//32 
f 80//32 83//32 25//32 
f 25//32 26//32 80//32 
f 102//32 80//32 26//32 
f 26//32 27//32 102//32 
f 104//32 102//32 27//32 
f 27//32 29//32 104//32 
f 83//32 72//32 57//32 
o mesh34
f 52//33 50//33 112//33 
f 50//33 115//33 112//33 
f 112//33 110//33 52//33 
o mesh35
f 90//34 104//34 28//34 
f 104//34 29//34 28//34 
f 93//34 90//34 30//34 
f 30//34 37//34 93//34 
f 110//34 93//34 37//34 
f 37//34 52//34 110//34 
f 28//34 30//34 90//34 
o mesh36
f 35//35 36//35 107//35 
f 106//35 107//35 36//35 
f 36//35 31//35 106//35 
f 107//35 100//35 35//35 
